<svg id="Layer_1" data-name="Layer 1" xmlns="http://www.w3.org/2000/svg" viewBox="0 0 1364.88 1472.3"><defs><style>.cls-1{fill:#f5af41;}.cls-2{opacity:0.55;}.cls-3{fill:#fff;}.cls-4{opacity:0.3;}.cls-5{fill:#650000;}.cls-6{fill:#792937;}.cls-7{fill:#ff40b2;stroke:#650000;stroke-miterlimit:10;stroke-width:4.81px;}.cls-8{opacity:0.25;}</style></defs><path class="cls-1" d="M2551.74,2029.42q-17.84,19.86-38.21,38.79c-6.65,6.16-13.48,12.28-20.51,18.2q-21.72,18.62-45.86,36c-88.22,63.63-200.61,115.56-332.77,149.88a1180.59,1180.59,0,0,1-117,24.25q-20.07,3.11-39.7,5.4-16.83,1.93-33.36,3.32c-15.35,1.3-30.46,2.21-45.43,2.79-112.43,4.09-213.31-12.61-297-47.41q-23-9.53-44.08-20.89-13.93-7.42-27-15.64a410.51,410.51,0,0,1-44.38-31.86c-60.4-49.57-102.94-114-122.92-191-24.4-94-9.53-187.66,38.55-273.52a.39.39,0,0,0,0-.15c82.45-147.37,262.5-271.88,509.06-335.89,262.55-68.15,488-38.55,627.6,65.79a0,0,0,0,1,.05,0,383.72,383.72,0,0,1,45.68,40c.33.34.48.53.48.53,43.6,44.81,74.74,99.34,91.15,162.43.1.39.2.77.29,1.16C2689.53,1791,2649.83,1920.26,2551.74,2029.42Z" transform="translate(-1317.56 -1340.73)"/><g class="cls-2"><path class="cls-3" d="M1917,2305c8.23-.34,16.5-.72,24.83-1.25-5.87.58-11.74,1.1-17.57,1.59-15.35,1.3-30.46,2.21-45.43,2.79-112.43,4.09-213.31-12.61-297-47.41q-23-9.53-44.08-20.89-13.93-7.42-27-15.64a410.51,410.51,0,0,1-44.38-31.86c-60.4-49.57-102.94-114-122.92-191-24.4-94-9.53-187.66,38.55-273.52a.39.39,0,0,0,0-.15c82.45-147.37,262.5-271.88,509.06-335.89,73.59-19.11,144.25-30.51,210.9-34.75a1162,1162,0,0,0-172.73,31.62c-246.57,64-426.62,188.52-509.06,335.9a.38.38,0,0,1,0,.14c-48.08,85.86-63,179.52-38.55,273.52,20,77,62.52,141.45,122.92,191a408.16,408.16,0,0,0,44.38,31.86q13.13,8.24,27,15.64,21.16,11.34,44.09,20.89C1703.71,2292.35,1804.59,2309.05,1917,2305Z" transform="translate(-1317.56 -1340.73)"/></g><g class="cls-4"><path class="cls-5" d="M2656.37,1661.67v-.05c-.09-.39-.19-.77-.29-1.16-16.41-63.09-47.55-117.62-91.15-162.43,0,0-.15-.19-.48-.53a385.41,385.41,0,0,0-46.11-40.19c-52.94-30.22-115.17-51.54-184.82-63.14-115.26-19.26-250.8-11.75-398,26.47-246.57,64-426.62,188.52-509.06,335.89a.33.33,0,0,1,0,.14c-2.36,4.67-62.67,129.57,50.68,232.27,0,0,33.69,27.68,33.69,154v81.19q13.14,8.23,27,15.64,21.15,11.34,44.08,20.89a426.44,426.44,0,0,1,1.64-52.8c4.24-42.3,16.27-77.58,39.71-102.75.43-.48.86-.92,1.3-1.4,20.79,27.72,43.7,42.11,68.87,42.11,15.93,0,32.77-5.77,50.53-17.56a149.21,149.21,0,0,0,16.71-13.29c2.5-2.21,5.14-4.28,7.7-6.4,58.23-24.25,118.25-4.38,140.68,74.07a344.88,344.88,0,0,1,8.9,38.55q2.74,15.75,4.28,32.06-51.75,11-101.31,16.65-40.2,4.7-78.78,6.11a828.58,828.58,0,0,1-135.1-5.68c78.4,28.21,170.42,41.4,271.83,37.74,15-.58,30.08-1.49,45.43-2.79,4.43-.39,8.86-.77,13.33-1.21,2.8-.24,5.54-.53,8.33-.82l11.7-1.29c6.69-.77,13.38-1.64,20.11-2.56,3.18-.43,6.41-.86,9.58-1.34,3.32-.48,6.69-1,10-1.5a1180.59,1180.59,0,0,0,117-24.25c132.16-34.32,244.55-86.25,332.77-149.88q24.18-17.46,45.86-36c2.8-2.36,5.59-4.77,8.33-7.22,4.14-3.61,8.18-7.27,12.18-11,3.37-3.13,6.73-6.3,10-9.53s6.54-6.4,9.72-9.62,6.3-6.5,9.38-9.77,6.12-6.55,9.1-9.87C2649.83,1920.26,2689.49,1791,2656.37,1661.67Zm-854.62,109.92c-5.06-40.95,28.63-71.71,69.64-78.64,22.33-3.8,45,2,64.49,13.62,53.09,31.81,90.92,10.88,95.3-30.46,3-28.88,25.22-45.73,65.55-19.26,21.08,16.56,44.9,17.91,72.48-1.63,30.32-21.52,72.53,2.07,70.22,39.17-.67,10.4-3.56,21.66-8.76,33.6C2123.2,1835.22,1864.31,1867.8,1801.75,1771.59Zm575,264.57a697.1,697.1,0,0,1-66.37,54.24c-85.14,61.41-192.8,111.95-319,146.22-1.64-25.42-1.74-49.14.62-70.47,3.32-30.32,31.38-58.38,61.8-59.87,17.95-.86,32.44-12.46,42-39.37,7.12-20.11,30.08-30.61,50.34-24.11q170.37,54.72,229.19-106.7a57.9,57.9,0,0,1,19.73-26.95c23.59-17.23,49.09-6.4,68.11,26.13C2439.89,1970.61,2411,2004.44,2376.79,2036.16Z" transform="translate(-1317.56 -1340.73)"/></g><g class="cls-4"><path class="cls-6" d="M2260.42,1361.05c102.37,12.76,190.2,45.73,257.92,96.26-52.94-30.22-115.17-51.54-184.82-63.14A495.78,495.78,0,0,0,2260.42,1361.05Z" transform="translate(-1317.56 -1340.73)"/><path class="cls-5" d="M2517.15,1459.4c-52.87-30.18-114.78-51.33-184-62.86l-.78-.27a495,495,0,0,0-72.75-33l-20.2-7.31,21.31,2.66c103.13,12.84,190.29,45.38,259.07,96.71Zm-182.82-67.54c54.43,9.1,104.38,24.11,149,44.74-57.14-34.79-125-58.35-202.5-70.27A487.94,487.94,0,0,1,2334.33,1391.86Z" transform="translate(-1317.56 -1340.73)"/></g><path class="cls-7" d="M2564.93,1498s-.15-.19-.48-.53a386.72,386.72,0,0,0-50.87-43.7c-140-101.36-363.14-129.42-622.46-62.09-246.56,64-426.61,188.52-509.06,335.89a.39.39,0,0,1,0,.15c-2.35,4.67-62.66,129.56,50.68,232.27,0,0,33.69,27.67,33.69,154v481.68c0,25-.86,50-1.63,75-6.4,199.54,179.52,148.09,144-34.12C1587,2522.21,1554.17,2398,1542,2292.3c-2.07-18.1-3.51-35.66-4.23-52.51a432.23,432.23,0,0,1,1.35-60.83c4.23-42.31,16.26-77.59,39.7-102.76.43-.48.87-.91,1.3-1.39,20.79,27.72,43.7,42.11,68.87,42.11,15.93,0,32.78-5.78,50.54-17.57a147,147,0,0,0,16.7-13.28c2.5-2.22,5.15-4.28,7.7-6.4,58.24-24.26,118.25-4.38,140.68,74.07a343.87,343.87,0,0,1,8.91,38.55c6.3,36.24,7.7,75.08,5.29,115.8-1,16.84-2.6,34-4.81,51.5-2.46,19.54-5.63,39.46-9.39,59.68-13.33,76.71,66.95,89.08,98.62,34.07,8.71-15.11,11.5-32.92,9.14-50.15-4.71-34.22-10.1-68.34-14.77-101.21-4.19-29.17-7.8-57.42-9.87-84a.17.17,0,0,1,0-.14c-2.31-29.27-2.74-56.46-.09-80.62,3.32-30.32,31.38-58.38,61.79-59.87,18-.87,32.44-12.47,42-39.37,7.13-20.12,30.08-30.61,50.35-24.11q170.37,54.72,229.19-106.71a57.82,57.82,0,0,1,19.73-27c36-26.33,76.52,12.8,91.54,94.62,6.45,41.63,8.23,92.46,5,147.61A1046.29,1046.29,0,0,1,2419,2308.66c-19.25,120.23,125.14,92.12,120.33-21.75-6.16-70.89-17.76-146.26-25.75-218.7-14.78-134.61-17.09-259,51.4-325.54C2632.31,1670.86,2623,1579.8,2564.93,1498Zm-378.63,201c-107.47,107.23-366.36,139.82-428.93,43.61-5-41,28.64-71.71,69.64-78.64,22.34-3.81,45,2,64.5,13.62,53.08,31.81,90.91,10.87,95.29-30.47,3-28.88,25.22-45.72,65.55-19.25,21.09,16.56,44.91,17.9,72.49-1.64,30.32-21.51,72.53,2.07,70.22,39.18C2194.38,1675.87,2191.5,1687.13,2186.3,1699.06Z" transform="translate(-1317.56 -1340.73)"/><g class="cls-2"><path class="cls-3" d="M1492.37,2662.65c.77-25,1.64-50,1.64-75V2106c0-47.56-4.76-81.13-10.72-104.51a32.19,32.19,0,0,0-43.42-21.74h0c9.67,20.17,21.7,60.45,21.7,135.92v481.67c0,25-.86,50-1.64,75-3.65,114.64,56.17,146.45,101,118.2C1524.33,2790.05,1489.53,2750.87,1492.37,2662.65Zm399.91-251.47c3.75-20.21,6.93-40.14,9.38-59.68q3.33-26.2,4.82-51.5c2.4-40.72,1-79.56-5.3-115.8a342.67,342.67,0,0,0-8.9-38.55c-22.43-78.45-82.45-98.33-140.68-74.07-.39.34-.82.68-1.21,1,47.31-6.59,91,18.34,109.45,82.74a341.67,341.67,0,0,1,8.9,38.55c6.31,36.24,7.7,75.08,5.3,115.8q-1.45,25.26-4.82,51.49c-2.45,19.54-5.63,39.47-9.38,59.68-10.78,62,39.66,82,76.09,58.29C1908.35,2478.61,1884.53,2455.75,1892.28,2411.18Zm116.23-332.62a36.54,36.54,0,0,0,18-7.7A63.23,63.23,0,0,0,2008.51,2078.56Zm438.07,222a1045.33,1045.33,0,0,0,28.2-186.21c3.28-55.16,1.5-106-5-147.61-15-81.82-55.55-121-91.55-94.62-1,.72-1.92,1.44-2.84,2.26,26.43,5.39,51,42.35,61.95,102,6.45,41.63,8.23,92.46,5,147.61a1045.33,1045.33,0,0,1-28.2,186.21c-11.84,73.78,38,91.69,77.15,68.2C2462.27,2378.64,2437.92,2354.58,2446.58,2300.58Z" transform="translate(-1317.56 -1340.73)"/></g><g class="cls-4"><path class="cls-6" d="M2609.3,1527a5.36,5.36,0,0,0-.48-.53,388.23,388.23,0,0,0-50.87-43.7,422.47,422.47,0,0,0-39.18-25.17,0,0,0,0,0-.05,0,1.69,1.69,0,0,0-.38-.19,385.41,385.41,0,0,1,46.11,40.19c.33.34.48.53.48.53,43.6,44.81,74.74,99.34,91.15,162.43.1.39.2.77.29,1.16C2657.43,1617,2640.3,1570.66,2609.3,1527Z" transform="translate(-1317.56 -1340.73)"/><path class="cls-5" d="M2658.36,1679.42l-4.61-18.37c-16.09-61.84-46.55-116.13-90.55-161.34l1.25-2.21-1.72,1.68a384.06,384.06,0,0,0-45.74-39.87l-.62-.47-11.77-8.73,14.71,5h1.82l0,1a425.46,425.46,0,0,1,38.21,24.64,390.83,390.83,0,0,1,51.18,44,7.29,7.29,0,0,1,.69.77l0,0c32.12,45.29,48.55,92.36,47.51,136.12Zm-109.24-200q8.82,8,17.05,16.4a7.29,7.29,0,0,1,.69.77,360.25,360.25,0,0,1,86.38,145.18c-3.54-36.93-19.17-75.72-45.85-113.35a385.81,385.81,0,0,0-50.85-43.74Q2552.88,1482,2549.12,1479.42Z" transform="translate(-1317.56 -1340.73)"/></g><g class="cls-2"><path class="cls-3" d="M2564.93,1498s-.15-.19-.48-.53c-132.74-136-379.84-182-673.33-105.79-246.56,64-426.61,188.52-509.06,335.89a.39.39,0,0,1,0,.15c-1.82,3.66-39.41,81.38-.67,164.31-17.13-69.21,11-127.45,12.61-130.62a.39.39,0,0,0,0-.15c82.44-147.37,262.49-271.88,509.06-335.89,293.49-76.19,540.58-30.22,673.32,105.79a5.36,5.36,0,0,1,.48.53,288.24,288.24,0,0,1,28.88,50.29C2598.28,1553.71,2584.32,1525.32,2564.93,1498Z" transform="translate(-1317.56 -1340.73)"/></g><path class="cls-5" d="M1957.64,2316.41a14.44,14.44,0,0,1-1.3-28.82,1150.38,1150.38,0,0,0,154.43-29.24c127.82-33.19,238.15-82.85,327.94-147.61a14.44,14.44,0,1,1,16.89,23.42C2362.9,2201,2249.32,2252.21,2118,2286.3a1177.55,1177.55,0,0,1-158.72,30A15.39,15.39,0,0,1,1957.64,2316.41Z" transform="translate(-1317.56 -1340.73)"/><path class="cls-5" d="M1466.38,2206.73a14.42,14.42,0,0,1-9.16-3.28C1393,2150.7,1350,2083.9,1329.49,2004.89c-24.59-94.79-11-192.63,39.29-283,.19-.44.46-1,.68-1.37,86.65-154.89,275.47-279.84,518-342.81,290.32-75.36,547.43-34.16,687.79,110.22,46,47.33,77.94,104.14,94.78,168.87,38.53,148.54-13.57,298.39-146.71,422a14.44,14.44,0,1,1-19.65-21.17c125-116,174.15-255.78,138.41-393.54-15.56-59.81-45-112.3-87.53-156-133-136.85-379.69-175.13-659.83-102.41-234.71,60.93-416.84,180.63-499.8,328.46l-.41.83c-.09.19-.2.38-.3.58-46.8,83.84-59.53,174.46-36.8,262.08,18.93,73,58.66,134.7,118.1,183.49a14.44,14.44,0,0,1-9.16,25.6Z" transform="translate(-1317.56 -1340.73)"/><g class="cls-2"><path class="cls-3" d="M2135.28,1521.15c175.77,10.16,148.09,216.27-56.45,290.87-197.33,82.29-494.13-5.72-294.79-207-122.74,186.58,120.75,254.51,272.19,174.22C2291.8,1654.4,2214.35,1564.34,2135.28,1521.15Z" transform="translate(-1317.56 -1340.73)"/></g><path class="cls-5" d="M1846.23,2323.12c-120.25,0-228.65-24.2-315.24-70.6a14.44,14.44,0,1,1,13.64-25.45c90,48.21,205.35,71.22,333.7,66.59a14.44,14.44,0,1,1,1,28.86C1868.24,2322.92,1857.17,2323.12,1846.23,2323.12Z" transform="translate(-1317.56 -1340.73)"/><path class="cls-5" d="M1907.82,1820.7c-91.28,0-157.91-35.17-174.25-98.11-12.88-49.64,11.38-102.28,66.58-144.42a14.44,14.44,0,0,1,17.52,22.95c-46.17,35.26-66.11,75.82-56.15,114.21,17.94,69.11,123.68,95.19,251.43,62s207.44-107.39,189.5-176.49c-8.91-34.34-39.48-59.18-86.08-70a14.44,14.44,0,0,1,6.51-28.14c57.59,13.33,95.77,45.59,107.52,90.84,22.5,86.67-63.93,173.73-210.2,211.7C1980.16,1815.7,1942.23,1820.7,1907.82,1820.7Z" transform="translate(-1317.56 -1340.73)"/><path class="cls-5" d="M1757.34,1757.11a14.44,14.44,0,0,1-14.31-12.68c-5.65-45.9,28.66-85.71,81.59-94.66,24.4-4.12,50.79,1.38,74.31,15.48,22.23,13.32,42.06,16.87,55.82,10,9.9-5,16.18-15.45,17.67-29.6,2.06-19.77,11.2-34.46,25.73-41.36,11.79-5.59,32.15-8.13,62.13,11.56.34.23.68.46,1,.72,17.14,13.47,34.16,12.83,55.18-2.08a59.15,59.15,0,0,1,93,51.86c-.77,12.17-4.11,25.11-9.95,38.46a14.44,14.44,0,1,1-26.46-11.56c4.48-10.25,7-19.91,7.58-28.71a30.26,30.26,0,0,0-47.46-26.49c-39.31,27.87-70.14,16.4-89.22,1.63-14.23-9.25-26.39-12.64-33.43-9.29s-8.92,13.9-9.38,18.28c-2.53,24-14.74,43-33.5,52.42-22.89,11.42-52.56,7.48-83.55-11.08-17.63-10.57-37-14.75-54.66-11.77-31.86,5.38-61.93,28.63-57.74,62.65a14.45,14.45,0,0,1-12.57,16.1A15.32,15.32,0,0,1,1757.34,1757.11Z" transform="translate(-1317.56 -1340.73)"/><path class="cls-5" d="M1533.94,2813a65.75,65.75,0,0,1-30.58-7.53c-35.87-18.71-55.2-68-53-135.22l.23-7.64c.69-22,1.4-44.68,1.4-66.93V2114c0-109.85-26.19-140.41-28.63-143-.14-.1,0,0-.32-.31-122.27-110.81-54.51-248.28-53.81-249.65a14.44,14.44,0,0,1,25.75,13.06c-2.56,5.12-58,119.49,47.32,215.08,5.52,4.82,38.56,39,38.56,164.82v481.68c0,22.7-.71,45.64-1.4,67.83l-.24,7.64c-1.76,54.91,12.27,95.54,37.54,108.72,14,7.28,30.41,5.15,45.14-5.85,24.89-18.58,46.55-63.71,32.72-134.67-7.54-39.51-16.54-80.91-25.24-120.94-41.34-190.12-80.38-369.7.42-453.65a14.44,14.44,0,1,1,20.8,20c-70.11,72.85-30.91,253.13,7,427.48,8.74,40.21,17.78,81.79,25.37,121.61,16.38,84-11.88,139.46-43.79,163.28C1565.09,2807.68,1549.38,2813,1533.94,2813Z" transform="translate(-1317.56 -1340.73)"/><path class="cls-5" d="M1649,2131.36a78.89,78.89,0,0,1-22.29-3.21c-35.4-10.36-65.54-44.69-92.16-105a14.44,14.44,0,1,1,26.42-11.66c22.64,51.27,47.49,81.18,73.85,88.9,17.26,5,35.82.76,56.74-13.11a138.05,138.05,0,0,0,15.11-12.08c35.86-31.8,78.43-52.27,126.53-60.86a14.44,14.44,0,1,1,5.07,28.43c-43.39,7.74-80.17,25.42-112.44,54a163.25,163.25,0,0,1-18.31,14.55C1687.52,2124.68,1667.92,2131.36,1649,2131.36Z" transform="translate(-1317.56 -1340.73)"/><g class="cls-8"><path class="cls-3" d="M1544.94,1784.71a153.27,153.27,0,0,1,86.31-182.77c7.58-3.29,17.82-2.48,26-1.63s16.45,3.36,22.93,8.49l.19.16c9.87,7.94,9.1,23.11-1,30.81-41.91,32.1-66.28,86.46-61.16,139.15,1.69,17.33-16.31,33.66-33.59,35.82S1549.74,1801.45,1544.94,1784.71Z" transform="translate(-1317.56 -1340.73)"/></g><g class="cls-8"><path class="cls-3" d="M1614.24,1859.45c-3.2,13.27,1.76,27.59,10.57,38s21,17.41,33.69,22.57c11.51,4.69,23.77,8.09,36.19,7.69s25.06-4.92,33.45-14.08,11.74-23.27,6.53-34.55c-6.05-13.07-20.92-19.14-34.47-24-17.28-6.24-35.46-15.44-53.39-19.34C1632.22,1832.54,1617.5,1846,1614.24,1859.45Z" transform="translate(-1317.56 -1340.73)"/></g><path class="cls-5" d="M1909.47,2501.74a62.48,62.48,0,0,1-21.32-3.71c-23.57-8.53-45.86-34.35-37.72-81.25,19.88-107.2,20-191.87.36-259-9.3-32.58-26.09-55.45-48.56-66.23-20.86-10-46.8-9.45-73,1.57a14.44,14.44,0,1,1-11.19-26.62c34-14.27,68.32-14.62,96.73-1,30.12,14.46,52.19,43.59,63.8,84.25,20.91,71.48,21,160.52.32,272.11-4.29,24.73,2.85,43.11,19.12,49,15.85,5.74,39.07-.92,52.79-24.74,6.75-11.72,9.35-26.28,7.33-41-2.71-19.79-5.7-39.77-8.58-59.09-11.68-78.17-22.71-152-16.26-210.43,4.16-37.63,38.73-70.92,75.5-72.69,8.08-.39,19.88-3.9,29-29.78,9.65-27.22,40.32-42,68.38-33,105.77,34,174.85,2,211.19-97.89a71.57,71.57,0,0,1,24.77-33.65c15.48-11.33,33.15-13.93,49.73-7.33,30.26,12,53.78,52.5,64.53,111,14.35,92.84,5.39,222.63-23.3,339.27-4.2,26.9.41,46.59,13,55.49,10.22,7.22,25.68,6.74,40.35-1.26,19.66-10.7,40-36.79,38.41-77.94-3.67-42.18-9.39-86.83-14.91-130-21.35-166.82-43.43-339.3,44.68-425.25,57.45-61.44,56.92-143.87-1.47-226.18a14.44,14.44,0,0,1,23.56-16.71c67.14,94.65,66.68,190.47-1.25,262.89-.16.16-.31.32-.47.47-78,75.81-56.87,241.19-36.41,401.11,5.58,43.59,11.35,88.65,15.06,131.52,0,.21,0,.42.05.64,2.3,54.57-26.09,89.93-53.43,104.82-24.42,13.31-51.56,13.1-70.84-.52-12.82-9.07-33.09-32.07-24.74-84.21a11.55,11.55,0,0,1,.24-1.17c27.95-113.34,36.77-239.07,23-328.15-10.29-55.93-31.62-83-46.73-89-7.33-2.91-14.53-1.67-22,3.81a43,43,0,0,0-14.68,20.21c-41.54,114.18-127,154.12-247.16,115.52-13.11-4.21-27.91,2.73-32.32,15.17-11.08,31.28-29.55,47.76-54.88,49-23,1.11-45.54,23.08-48.18,47-6,54.71,4.71,126.73,16.1,203,2.91,19.41,5.9,39.47,8.64,59.43,2.89,21-1,42.08-10.92,59.32C1960.86,2486.45,1935.11,2501.74,1909.47,2501.74Z" transform="translate(-1317.56 -1340.73)"/><path class="cls-5" d="M2406.12,1804a14.43,14.43,0,0,1-12.52-7.22l-41.71-72.19a14.44,14.44,0,0,1,25-14.44l41.72,72.19a14.44,14.44,0,0,1-12.49,21.66Z" transform="translate(-1317.56 -1340.73)"/><path class="cls-5" d="M1690.6,1619.51a14.42,14.42,0,0,1-11.65-5.89l-46-62.55A14.44,14.44,0,0,1,1656.2,1534l46,62.55a14.45,14.45,0,0,1-11.62,23Z" transform="translate(-1317.56 -1340.73)"/><path class="cls-5" d="M1928,1986.89a14.42,14.42,0,0,1-13.46-9.22l-30.27-78.14a14.44,14.44,0,0,1,26.93-10.43l30.27,78.14a14.43,14.43,0,0,1-13.47,19.65Z" transform="translate(-1317.56 -1340.73)"/><path class="cls-3" d="M2140.86,1928.47a13.85,13.85,0,0,1-2.92-.3,14.43,14.43,0,0,1-11.24-17l16.82-82.09a14.43,14.43,0,1,1,28.28,5.8L2155,1916.93A14.46,14.46,0,0,1,2140.86,1928.47Z" transform="translate(-1317.56 -1340.73)"/><path class="cls-5" d="M2187.92,1486.35a14.4,14.4,0,0,1-10.68-4.72l-47.07-51.72a14.44,14.44,0,1,1,21.36-19.44l47.07,51.72a14.44,14.44,0,0,1-10.68,24.16Z" transform="translate(-1317.56 -1340.73)"/><path class="cls-3" d="M1851.46,1512.45a14.44,14.44,0,0,1-6.36-27.41l92.61-45.35a14.44,14.44,0,0,1,12.7,25.94L1857.8,1511A14.38,14.38,0,0,1,1851.46,1512.45Z" transform="translate(-1317.56 -1340.73)"/><path class="cls-3" d="M1476.74,1764.72a14.44,14.44,0,0,1-1-28.84l108-7.62a14.44,14.44,0,0,1,2,28.81l-108,7.61C1477.43,1764.71,1477.08,1764.72,1476.74,1764.72Z" transform="translate(-1317.56 -1340.73)"/><path class="cls-5" d="M1637.82,1930.08a14.44,14.44,0,0,1-5.31-27.87l107.94-42.65a14.44,14.44,0,1,1,10.62,26.85l-108,42.66A14.32,14.32,0,0,1,1637.82,1930.08Z" transform="translate(-1317.56 -1340.73)"/><path class="cls-3" d="M2364.39,1609.56a14.44,14.44,0,0,1-5.31-27.87l82.77-32.7a14.44,14.44,0,1,1,10.61,26.85l-82.76,32.71A14.37,14.37,0,0,1,2364.39,1609.56Z" transform="translate(-1317.56 -1340.73)"/><g class="cls-4"><path class="cls-5" d="M2564.93,1742.67c-46.59,45.24-60.4,117.29-59.83,201.08-21.85-16.94-49.14-27.58-81.57-28.54-19.35-39.32-47.27-53.71-72.87-35a57.82,57.82,0,0,0-19.73,27q-58.77,161.5-229.19,106.71c-20.27-6.5-43.22,4-50.35,24.11-9.53,26.9-24,38.5-42,39.37-30.41,1.49-58.47,29.55-61.79,59.87-2.65,24.16-2.22,51.35.09,80.62-6.3-26.57-21-94.29-19.68-141,1.59-59.3,79.6-59.44,79.6-59.44,29.94-75.42,135.34-65.79,202.72-65.79s46.54-62.57,109.11-126.73c27.82-28.54,56.12-35.37,79-34.17,40.24,2.12,78.64-17.66,101.84-50.53,78.79-111.42,89.09-208.69,9.29-287.53l4,1.16a386.72,386.72,0,0,1,50.87,43.7c.33.34.48.53.48.53C2623,1579.8,2632.31,1670.86,2564.93,1742.67Z" transform="translate(-1317.56 -1340.73)"/></g><g class="cls-4"><path class="cls-5" d="M1781.05,1614.71s57.23-40.84,122.17-58.47a35.77,35.77,0,0,1,43.67,25.21c8.66,31.91,14.22,80.56-18.87,110.63,0,0-9.22,122,166.45,61.39C1835.77,1873,1686.63,1749.77,1781.05,1614.71Z" transform="translate(-1317.56 -1340.73)"/></g><g class="cls-4"><path class="cls-5" d="M1873.56,2192.29a343.87,343.87,0,0,0-8.91-38.55c-22.43-78.45-82.44-98.33-140.68-74.07-2.55,2.12-5.2,4.18-7.7,6.4a147,147,0,0,1-16.7,13.28c-17.76,11.79-34.61,17.57-50.54,17.57-25.17,0-48.08-14.39-68.87-42.11-.43.48-.87.91-1.3,1.39l-25.65-47.07c51.45,39.07,108.36,38.69,173-17.87,21.52-18.84,51-26.91,78.78-20C1861.46,2005.2,1884.72,2071.6,1873.56,2192.29Z" transform="translate(-1317.56 -1340.73)"/></g></svg>