<svg id="Layer_1" data-name="Layer 1" xmlns="http://www.w3.org/2000/svg" viewBox="0 0 1377.28 1022.07"><defs><style>.cls-1{fill:#f5af41;}.cls-2{opacity:0.55;}.cls-3{fill:#fff;}.cls-4{opacity:0.4;}.cls-5{fill:#650000;}.cls-6{fill:#792937;}</style></defs><path class="cls-1" d="M2669.45,2040.77c-41.82,260.43-343.64,406.74-741.86,342.77-159-25.55-293-78.11-393.79-148.67a604.09,604.09,0,0,1-68.1-55c-105.89-99.09-156.33-223.22-135.29-354.13,13.81-85.81,56.31-158.73,121.33-215.67,132.35-115.89,358.08-165.56,625.05-122.68,359,57.66,586.35,249.46,597,477.49A365.11,365.11,0,0,1,2669.45,2040.77Z" transform="translate(-1311.36 -1457.91)"/><g class="cls-2"><path class="cls-3" d="M2242.35,1526.13a1196.33,1196.33,0,0,0-125.13-26.86c-267-42.88-492.7,6.79-625,122.68-65,56.94-107.52,129.85-121.34,215.67-35.71,222.4,134.76,425.17,433.31,519.41-323.48-88.22-511-299-473.73-531.3,13.81-85.81,56.31-158.73,121.33-215.67,132.35-115.89,358.08-165.56,625.05-122.68A1161.7,1161.7,0,0,1,2242.35,1526.13Z" transform="translate(-1311.36 -1457.91)"/></g><g class="cls-4"><path class="cls-5" d="M2563,1778.13a574.85,574.85,0,0,0-86.35-75.61c-100.78-72.43-236.69-126.34-399.9-152.57-267-42.88-492.7,6.79-625,122.68-62.67,78.89-55.93,151.94,6.78,220.29a76.93,76.93,0,0,1,19.69,61.41c-1.88,15.26-5.73,31.33-10.4,47.74-22.42,63.87,35.72,116.91,97.08,62.19a204.94,204.94,0,0,1,47.55-27.2c35.47-4.9,65.12,1.5,89.47,22.24,22.67,19.2,40.82,50.73,54.92,96.93,1.83,6.11,3.66,12.47,5.39,19.11,39.32,89,141.21,92,208.54,40.14,36-23.58,76.19-9.48,119.55,34,53.72,47.79,100.4,11.31,155.6-54.92q4.64,2.31,9.25,4.77a255.49,255.49,0,0,1,43,29c17,14.13,11.89,41.47-8.95,48.83-123.12,43.52-277.67,55.31-450.36,27.59-96.32-15.49-183.46-40.87-259.61-74.2a62.83,62.83,0,0,1-37.79-56.2c-1-59.45-38.59-48.36-38.59-48.36L1470.46,2173l-4.76,6.88a577.15,577.15,0,0,0,46.92,39.57c1.93,1.49,3.85,2.93,5.83,4.42,5,3.71,10.15,7.37,15.35,11,100.83,70.56,234.77,123.12,393.79,148.67,375.45,60.31,665.24-66.32,732.14-299.31a366.06,366.06,0,0,0,9.72-43.46q2.24-13.79,3.37-27.43C2665.45,1927.67,2627.29,1847.53,2563,1778.13ZM2337.36,1930.8c-341.72,112.38-525.33-95.16-525.33-95.16,0-86.24,138.37-98.76,188-49.33,41.19,43.85,81.33,68.06,118.39,36.1,26.18-17.38,52.27-20.74,78.26-1.25,11.31,8.47,24.88,13.47,39,13C2295.92,1832.28,2350.21,1847.05,2337.36,1930.8Z" transform="translate(-1311.36 -1457.91)"/></g><g class="cls-4"><path class="cls-6" d="M2672.82,2013.34c-7.37-85.67-45.53-165.81-109.78-235.21-18-48.75-46.59-94.86-84.71-137,120,86.77,189.68,199.93,195.45,323.76A356,356,0,0,1,2672.82,2013.34Z" transform="translate(-1311.36 -1457.91)"/><path class="cls-5" d="M2675.22,2013.55h-4.8c-7.18-83.56-44.92-164.4-109.15-233.77l-.49-.81c-17.84-48.3-46.18-94.14-84.23-136.24l-15.35-17,18.54,13.41c121,87.48,190.73,203.12,196.45,325.6A360.88,360.88,0,0,1,2675.22,2013.55Zm-110.09-236.7c57.73,62.48,94.25,134.18,106.64,208.88.07-6.92-.06-13.85-.39-20.74-5.36-114.85-67.85-223.69-176.61-308.52C2525.83,1694.15,2549.45,1734.55,2565.13,1776.85Z" transform="translate(-1311.36 -1457.91)"/></g><path class="cls-5" d="M2476.69,1640c-100.78-72.43-236.69-126.34-399.9-152.57-267-42.88-492.7,6.79-625,122.68-62.67,78.89-55.93,152,6.78,220.29a76.94,76.94,0,0,1,19.69,61.41c-1.88,15.26-5.73,31.33-10.4,47.75-22.42,63.86,35.72,116.9,97.08,62.18a204.89,204.89,0,0,1,47.55-27.19c35.47-4.91,65.12,1.49,89.47,22.23,22.67,19.21,40.82,50.73,54.92,96.93,1.83,6.12,3.66,12.47,5.39,19.11,39.32,89,141.21,92,208.54,40.14,36-23.58,76.19-9.48,119.55,34,53.72,47.79,100.4,11.31,155.6-54.92q4.64,2.31,9.25,4.77c33.35,17.71,61.89,43.07,85.62,72.53,45.86,56.89,89.42,34,126.09-43,19.21-40.33,57.28-67.86,101.12-76.48,57.23-11.26,97.9-45.48,105.79-124.94C2668,1840.46,2597.69,1726.87,2476.69,1640ZM2000,1723.74c41.19,43.85,81.33,68.06,118.39,36.1,26.18-17.37,52.27-20.74,78.26-1.25,11.31,8.47,24.88,13.48,39,13,60.26-1.92,114.55,12.85,101.7,96.6-341.72,112.38-525.33-95.15-525.33-95.15C1812,1686.83,1950.4,1674.32,2000,1723.74Z" transform="translate(-1311.36 -1457.91)"/><g class="cls-4"><path class="cls-6" d="M2672.82,2013.34q-1.16,13.64-3.37,27.43a366.06,366.06,0,0,1-9.72,43.46c7-15.64,11.84-34.41,14.05-56.79C2673.54,2022.72,2673.25,2018,2672.82,2013.34Z" transform="translate(-1311.36 -1457.91)"/><path class="cls-5" d="M2661.92,2085.22l-4.5-1.66a365.91,365.91,0,0,0,9.65-43.17c1.45-8.89,2.57-18.06,3.35-27.26l4.79,0c.44,4.71.73,9.46,1,14.21C2674,2049.64,2669.21,2069,2661.92,2085.22Z" transform="translate(-1311.36 -1457.91)"/></g><g class="cls-2"><path class="cls-3" d="M1481.67,1868.47q-2.88-3.18-5.63-6.35a75.81,75.81,0,0,1,2.17,29.64c-1.88,15.26-5.73,31.33-10.4,47.75-11.6,33-1.68,63.09,19.11,76.91-1.88-11.79-.77-25,4-38.79,4.67-16.42,8.52-32.49,10.4-47.75A76.94,76.94,0,0,0,1481.67,1868.47Zm855.93-42.16c2.21,11.55,2.31,25.41-.24,41.92-269,88.46-440-21.32-500.64-72a71.56,71.56,0,0,0-1.54,15s98.93,183.69,426.78,124.13c19.15-3.48,39-9.9,59.72-16.69,38.8-12.74,50.32-63.65,19-89.89C2339.7,1827.9,2338.66,1827.09,2337.6,1826.31Zm-260.81-338.93c-267-42.88-492.7,6.79-625,122.68-57.27,72.1-56.55,139.39-8.13,202.58-23.3-52-14.64-106.65,31.28-164.46,132.35-115.89,358.08-165.56,625.05-122.68,250.08,40.19,436.29,145.45,529.8,282.71C2546.34,1652.47,2349.58,1531.18,2076.79,1487.38Z" transform="translate(-1311.36 -1457.91)"/></g><g class="cls-2"><path class="cls-3" d="M1458.52,1830.35c-5.39-5.87-10.34-11.74-14.91-17.71q11.33,25.13,32.43,49.48A76.81,76.81,0,0,0,1458.52,1830.35Z" transform="translate(-1311.36 -1457.91)"/><path class="cls-5" d="M1481.13,1871.66l-6.9-8c-14.16-16.34-25.2-33.18-32.82-50.06l-8.57-19,12.68,16.53c4.5,5.88,9.34,11.62,14.78,17.55h0a79.83,79.83,0,0,1,18.07,32.76Zm-24.6-39.92q5.37,8.68,11.94,17.28a75,75,0,0,0-11.72-17h0Z" transform="translate(-1311.36 -1457.91)"/></g><path class="cls-3" d="M2659.39,1879.83v89.66c-14.68-136.64-178.56-84.61-329.1-.77a3.72,3.72,0,0,1-4.14-6.16C2455.47,1858.36,2566.31,1831.79,2659.39,1879.83Z" transform="translate(-1311.36 -1457.91)"/><path class="cls-3" d="M2162.89,1914c-54.67,68.06-117.91,186.66,0,127.36l145.59-68.46s-116.71,86.5-185.29,113c-53,14.78-111.9-33.69-6-171.88" transform="translate(-1311.36 -1457.91)"/><path class="cls-3" d="M2201.2,1761.73s-5.22-34.38,28.47-50.62c165.44-91.44,250.13-.61,133.26,84.18l.29,23.59c129.34-81.2,95-178.37-30.67-160.11-76.42,14.08-138.67,44.56-188.9,88.94" transform="translate(-1311.36 -1457.91)"/><path class="cls-3" d="M1945.81,1868.22c-138.67,78.52-270.83,38.46-236.53-33,0,0,24.54-49.82,110.13-51.78l-24.07-23.62c-212,65-120.79,220.35,92.82,160.43l104.61-35.6" transform="translate(-1311.36 -1457.91)"/><path class="cls-3" d="M1953.41,1694.89c61.56-20.39,153.51-77.42,110.72-114.56a50.11,50.11,0,0,0-23.61-11c-19.31-3.68-61.89-7-115.46,18.08v-24.87c63.12-13.33,137.54-23,160.6,20,8.42,15.74,7,35-2.22,50.27-10.49,17.53-24.31,35.75-41.54,46.9-16.24,10.51-25.77,31.42-24.82,50.44" transform="translate(-1311.36 -1457.91)"/><path class="cls-3" d="M1824.79,1645.13s-11.23-10.89-48.13,11.4c-81.76,62.35-203.57,108.3-223.43,48.47-1.81-5.45,4.51-10.16,9.15-6.77,53.61,39.13,163.45-30.85,248.57-99" transform="translate(-1311.36 -1457.91)"/><path class="cls-5" d="M2109.54,2413.11c-58.94,0-120.54-5.08-184.23-15.31-197-31.64-359.93-103.91-471.22-209-110.08-104-159.06-233.71-137.92-365.38,21.08-131.24,109.09-238.37,247.82-301.65,137.36-62.65,320.3-79.93,515.11-48.63,197,31.64,359.16,103.14,468.94,206.77,108.62,102.53,156.8,231.5,135.65,363.16s-108.3,239.56-245.41,303.81C2344.49,2390.83,2232.91,2413.11,2109.54,2413.11Zm-216-926.35c-119.51,0-228.66,20.73-317.57,61.28-129.65,59.14-211.79,158.56-231.28,280-19.59,121.94,26.31,242.62,129.23,339.81,105.53,99.65,267.47,171.2,456,201.48s364.71,13,496.14-48.56c128.18-60.07,209.56-160.3,229.15-282.24,19.86-123.7-24-240.43-127-337.58-105.56-99.64-262.44-168.54-453.7-199.26A1143.13,1143.13,0,0,0,1893.54,1486.76Z" transform="translate(-1311.36 -1457.91)"/><path class="cls-5" d="M2178.49,1928.55c-40,0-83.94-5-130.45-14.82-174-36.91-283.07-123.94-265.22-211.64,7.54-36.93,34.79-67.31,74.76-83.33a14.44,14.44,0,0,1,10.75,26.8c-30.8,12.35-51.65,35.06-57.22,62.3-14.25,70,87.91,144.74,242.93,177.62,78.68,16.7,151.83,18.59,206,5.33,49.95-12.23,81.22-36.7,88.05-68.89,7.3-34.28-13.59-71-58.82-103.38a14.43,14.43,0,1,1,16.81-23.47c55.14,39.48,80.09,86.66,70.26,132.85-9.25,43.63-48.12,75.93-109.43,90.94C2240.48,1925.33,2210.77,1928.55,2178.49,1928.55Z" transform="translate(-1311.36 -1457.91)"/><path class="cls-5" d="M2337.38,1882.66a13.8,13.8,0,0,1-2.21-.17,14.44,14.44,0,0,1-12.08-16.46c4.19-27.35.71-47.54-10.36-60-13-14.65-38-21.18-76.62-19.94-16.88.53-33.52-5-48.13-15.94-19-14.23-37.78-13.85-60.92,1.28-56.91,48.06-117.61-16.5-137.61-37.77-24.73-24.63-82-31.89-122.13-15.21-18.63,7.74-40.83,23.5-40.83,54.67a14.44,14.44,0,0,1-28.88,0c0-36.22,21.37-65.86,58.63-81.34,51.41-21.34,120.46-11.59,153.92,21.76,55.21,58.71,80.9,50.81,98.78,35.39a14.17,14.17,0,0,1,1.45-1.1c33.77-22.43,65.71-22.69,94.92-.78,9.31,7,19.68,10.53,29.88,10.18,30.43-1,73.81,1,99.15,29.64,17,19.21,22.85,47.32,17.29,83.56A14.45,14.45,0,0,1,2337.38,1882.66Z" transform="translate(-1311.36 -1457.91)"/><path class="cls-5" d="M1513.93,2038.8a63,63,0,0,1-35.14-10.39c-27.74-18.59-37.65-56-24.73-93.24,5.12-18.06,8.24-32.43,9.82-45.19a62.26,62.26,0,0,0-16-49.87c-70.25-76.5-72.72-157-7.34-239.16a14.44,14.44,0,1,1,22.6,18c-56,70.34-54,136.3,6,201.65a91.1,91.1,0,0,1,23.36,73c-1.78,14.36-5.22,30.22-10.82,49.93-.08.29-.17.57-.27.85-10,28.57-.51,50.77,13.41,60.1,16.19,10.85,38.78,5.8,60.42-13.5.3-.27.61-.53.93-.77,60.7-45.68,128.29-54.28,200.89-25.55a14.44,14.44,0,1,1-10.62,26.85c-63.31-25-119.72-18-172.45,21.43C1552.74,2031.71,1531.89,2038.79,1513.93,2038.8Z" transform="translate(-1311.36 -1457.91)"/><path class="cls-5" d="M2139.68,2223.15c-20.16,0-40-8.54-59-25.43q-.32-.28-.63-.6c-58.57-58.74-90.11-39.5-100.94-32.43-41.81,32-94.26,44.06-140.41,32.31-40-10.21-71.9-38-89.71-78.38a14.19,14.19,0,0,1-.76-2.19c-32.44-124.34-85.86-134.28-133.84-127.61a14.44,14.44,0,0,1-4-28.61c83.27-11.57,135.86,35.39,165.46,147.77,14.41,31.95,38.58,53,70,61,37.23,9.48,81.72-1.07,116.12-27.55.29-.23.6-.45.91-.65,40.81-26.68,87-14.7,137.32,35.6,14.71,13,28.66,18.8,42.69,17.74,30.51-2.28,63.6-37.35,91.93-71.35a14.44,14.44,0,0,1,22.19,18.48c-33.84,40.6-70.81,78.59-112,81.67C2143.26,2223.08,2141.47,2223.15,2139.68,2223.15Z" transform="translate(-1311.36 -1457.91)"/><path class="cls-5" d="M2391.7,2255.46c-21.41,0-42.29-12.45-62.17-37.1-24.07-29.84-51.38-53-81.17-68.82-23.33-12.4-45.26-21.16-67-26.78a14.44,14.44,0,1,1,7.23-28c24,6.2,48,15.76,73.34,29.23,33.25,17.67,63.57,43.31,90.1,76.2,15.26,18.92,29.67,27.72,42.85,26.17,18.73-2.21,39.67-25.76,59-66.31,20.56-43.2,62.19-74.77,111.35-84.44,59-11.6,89-48.61,94.63-116.46a14.44,14.44,0,1,1,28.78,2.38c-6.73,81.55-45.27,128.13-117.83,142.41-40.24,7.92-74.21,33.53-90.86,68.52-24.4,51.29-51.88,79.07-81.67,82.58A57.32,57.32,0,0,1,2391.7,2255.46Z" transform="translate(-1311.36 -1457.91)"/><path class="cls-5" d="M1494.41,2084.11c9,11.85,11.68,27.37,8.51,41.94-5.31,24.45-14,76.89-4.61,126.31,8,73.8-96.27,97.67-101.07-74.6C1396.92,2086.9,1463.89,2044.15,1494.41,2084.11Z" transform="translate(-1311.36 -1457.91)"/><g class="cls-2"><path class="cls-3" d="M1422.57,2191.41c1.74,62.09,16.37,98.67,34.08,116.67-26.81-3.27-56.89-39.66-59.39-130.33-.34-89.86,65.11-132.65,96.11-94.91C1461.32,2080.67,1422.33,2122,1422.57,2191.41Z" transform="translate(-1311.36 -1457.91)"/></g><path class="cls-5" d="M2382.49,2348.71c-4.73,62.88,5.27,103.31,34.46,114.5,16.4,6.28,35-.81,44.05-15.88,60.56-101.21,15.45-155.71-31.12-150C2404,2300.42,2384.45,2322.68,2382.49,2348.71Z" transform="translate(-1311.36 -1457.91)"/><g class="cls-2"><path class="cls-3" d="M2476.79,2316.41a51.81,51.81,0,0,0-21.66-1.83c-25.89,3.12-45.43,25.41-47.36,51.45-3.46,45.53.87,79.26,14.59,98.71a31.7,31.7,0,0,1-5.39-1.54c-29.22-11.17-39.23-51.6-34.47-114.5,1.93-26,21.47-48.27,47.36-51.4C2447.67,2295.13,2465.24,2301.73,2476.79,2316.41Z" transform="translate(-1311.36 -1457.91)"/></g><path class="cls-5" d="M1460.68,2322.72a50.38,50.38,0,0,1-22.76-5.55c-19.41-9.84-52.38-41-55.11-139-.25-67.6,33.52-109.75,65-120.45,22.17-7.54,43.88-.95,58.07,17.64h0c11.3,14.79,15.36,34.39,11.15,53.77-5.47,25.18-13.34,74.33-4.54,120.54.08.38.13.76.18,1.14,2.88,26.51-6.66,50.8-24.88,63.41A47.4,47.4,0,0,1,1460.68,2322.72Zm5-239.21a26.5,26.5,0,0,0-8.58,1.54c-22.71,7.72-45.61,42-45.43,92.66,2.46,88.25,30.7,109.34,39.29,113.7,9.07,4.59,16.1,2,20.39-.95,7.38-5.11,14.54-17.23,12.65-36-9.58-51.06-1.11-104.25,4.8-131.47,2.41-11.09.27-22.07-5.88-30.12h0C1478.17,2086.64,1472.39,2083.51,1465.69,2083.51Z" transform="translate(-1311.36 -1457.91)"/><path class="cls-5" d="M2429.5,2480a49.25,49.25,0,0,1-17.72-3.28c-34.92-13.39-49.21-55.6-43.69-129.06h0c2.52-33.56,27.78-60.77,60-64.69a66,66,0,0,1,63.7,29.67c22,33.9,15.31,85.71-18.45,142.13A51.29,51.29,0,0,1,2429.5,2480Zm7-168.66a39.83,39.83,0,0,0-4.85.3c-18.63,2.26-33.24,18.32-34.73,38.18h0c-3,40-1.08,89.85,25.23,99.93,9.56,3.67,21-.55,26.49-9.81,39.6-66.17,26.49-100.07,19-111.57A36.61,36.61,0,0,0,2436.47,2311.31Zm-54,37.4h0Z" transform="translate(-1311.36 -1457.91)"/><path class="cls-3" d="M1679.93,1552.71c-60.23,23.1-113,49.46-118.32,96.42-.77,6.75-9.6,9-13.23,3.23-22.49-35.6,16.17-93.25,129.82-106.81C1682.52,1545,1684,1551.15,1679.93,1552.71Z" transform="translate(-1311.36 -1457.91)"/><g class="cls-4"><path class="cls-5" d="M2673.78,1964.87c-7.89,79.46-48.56,113.68-105.79,124.94-43.84,8.62-81.91,36.15-101.12,76.48-36.67,77.06-80.23,99.92-126.09,43-23.73-29.46-52.27-54.82-85.62-72.53q-4.62-2.46-9.25-4.77c-55.2,66.23-101.88,102.71-155.6,54.92-43.36-43.51-83.5-57.61-119.55-34-67.33,51.84-169.22,48.9-208.54-40.14-1.73-6.64-3.56-13-5.39-19.11a43.78,43.78,0,0,1,9,7c67.38,65.31,151.6-19.59,151.6-19.59,108.29-69.78,123.12,34.9,179.53,45.34,12.91,2.38,20.19,1,23.74-2.61,19.64-19.84,47.45-29.22,73.75-19.85,34.73,12.37,61.91,23.23,61.91,23.23,76.19,57.61,130.38,74.5,146,20.07,16-82.64,51.65-100.78,51.65-100.78,178.7-68,177.26-226.64,19.49-404.09l3.22-2.46C2597.69,1726.87,2668,1840.46,2673.78,1964.87Z" transform="translate(-1311.36 -1457.91)"/></g><g class="cls-4"><path class="cls-5" d="M1925.06,1581.76s10.16,13.25,14.2,29.89c4.08,16.85,18.18,29.47,35.19,32.78,26,5.06,60.36,15.77,83.83,38.41,42.45,40.9,81-4.79,117,6.41s90.51,44.43,136.7,28.63c46.91,46.06,64.74,89.29,27.23,127.13,0,0-7.52-69.08-93.35-71.91,0,0-48.12-14.86-73-26.09s-56.49,28-76,25.2-37.94,9.29-63.6-12.37-56.16-77-130.76-65-90.56,86.68-90.56,86.68-36.31-108.28,34.75-141.6S1915.43,1611.44,1925.06,1581.76Z" transform="translate(-1311.36 -1457.91)"/></g></svg>