<svg id="Layer_1" data-name="Layer 1" xmlns="http://www.w3.org/2000/svg" viewBox="0 0 1394.59 284.35"><defs><style>.cls-1{opacity:0.65;}.cls-2{fill:#f5af41;}.cls-3{opacity:0.55;}.cls-4{fill:#fff;}.cls-5{opacity:0.4;}.cls-6{fill:#650000;}.cls-7{fill:#792937;}.cls-8{fill:#c76d2e;}.cls-9{fill:#f8f2e2;}</style></defs><g class="cls-1"><path class="cls-2" d="M448.92,66.67c47.31,30.89,49.63,102.71,2.39,175.05-18.87,28.89-40.83,50.52-63.43,64.1a129,129,0,0,1-16.7,8.52c-28.62,12.08-57.31,11.13-81.09-4.4-15.59-10.19-26.15-24.86-31.62-42.55-11.14-36-1.18-84.5,30.49-133,42.59-65.22,99.94-93,145.49-75.18A78.78,78.78,0,0,1,448.92,66.67Z" transform="translate(-250.97 -50.89)"/><g class="cls-3"><path class="cls-4" d="M311,105.37a257.12,257.12,0,0,0-16.17,22.15c-31.66,48.5-41.63,97-30.49,133,5.47,17.69,16,32.36,31.62,42.55,40.41,26.38,94.95,10.7,139.42-39.5-45.47,55.6-103.07,73.92-145.27,46.37-15.59-10.19-26.15-24.86-31.62-42.55-11.14-36-1.18-84.5,30.49-133A249.41,249.41,0,0,1,311,105.37Z" transform="translate(-250.97 -50.89)"/></g><g class="cls-5"><path class="cls-6" d="M388.25,64.6a122.55,122.55,0,0,0-22.32,10.3c-23,13.4-45.36,35.3-64.72,64.95-31.67,48.5-41.64,97-30.5,133,10,19.14,24.86,24.19,43.7,17.88a16.48,16.48,0,0,1,13.73,1.5,69.06,69.06,0,0,1,8.44,6.2c10.54,10,26,3.2,20.63-13.57A44,44,0,0,1,356,273.18c2.14-7.37,6-12.61,12.16-15.57,5.73-2.76,13.48-3.56,23.75-2.29,1.36.17,2.76.37,4.21.61,20.85.07,30.31-19.61,26-37.31-1.47-9.11,4.78-15.73,17.08-20.42,14-6.35,11-18.66,2.82-35.24.57-.47,1.15-.93,1.74-1.39a54.51,54.51,0,0,1,9.43-5.89,6.13,6.13,0,0,1,8.78,6c-2.22,27.88-13.39,59.15-33.87,90.52A229.78,229.78,0,0,1,391,296.54a13.45,13.45,0,0,1-14.29,2.5c-11.72-5-12.82,3.33-12.82,3.33l6.35,10.44.93,1.53A119.8,119.8,0,0,0,383,308.61l1.38-.75c1.16-.66,2.32-1.35,3.49-2,22.6-13.58,44.56-35.21,63.43-64.1,44.54-68.2,45-135.95,5.27-169.35a78.45,78.45,0,0,0-7.66-5.7c-1.67-1.09-3.36-2.1-5.07-3.05C426.44,57.59,407.43,58.08,388.25,64.6Zm10.2,57.47C390.64,198.73,334,216.56,334,216.56c-16.87-7.52-7.26-35.68,6.74-41.07,12.17-4.24,20.41-10,17.38-20-1.11-6.64.5-12,6.58-15.43a13.27,13.27,0,0,0,6-6.5C375.56,121.58,383.18,112.25,398.45,122.07Z" transform="translate(-250.97 -50.89)"/></g><g class="cls-5"><path class="cls-7" d="M443.85,63.62c-17.41-6-36.42-5.54-55.6,1a90.87,90.87,0,0,0-34.2,4.62c27.45-15.91,55.66-19.68,80.4-10A77,77,0,0,1,443.85,63.62Z" transform="translate(-250.97 -50.89)"/><path class="cls-6" d="M444.1,63.17l-.42.94c-17-5.88-36.09-5.54-55.26,1l-.2,0a90.49,90.49,0,0,0-34,4.6l-4.65,1.53,4.23-2.46c27.67-16,56.38-19.61,80.85-10.05A77.63,77.63,0,0,1,444.1,63.17Zm-55.92.91c17.26-5.85,34.48-6.75,50.17-2.66-1.34-.62-2.71-1.19-4.09-1.73-22.94-9-49.69-6.23-75.77,7.66A89.07,89.07,0,0,1,388.18,64.08Z" transform="translate(-250.97 -50.89)"/></g><path class="cls-6" d="M353.68,69.44c-23,13.41-45.35,35.3-64.72,64.95-31.67,48.5-41.63,97-30.49,133,10,19.14,24.85,24.2,43.69,17.88a16.5,16.5,0,0,1,13.74,1.51,68.11,68.11,0,0,1,8.43,6.19c10.55,10,26,3.21,20.64-13.57a44,44,0,0,1-1.18-11.68c2.13-7.36,6-12.61,12.15-15.56,5.74-2.77,13.49-3.57,23.76-2.3,1.35.18,2.76.37,4.21.61,20.85.07,30.31-19.61,26-37.3-1.47-9.11,4.79-15.74,17.09-20.43,14-6.34,11-18.66,2.82-35.23.57-.47,1.15-.94,1.74-1.4a59.91,59.91,0,0,1,21.65-10.43c15.13-4,14.46-14.53,2.58-28.42a30.19,30.19,0,0,1-6.15-26.46c2.79-12.18-.36-23.12-15.22-31.59C409.6,49.5,381.24,53.35,353.68,69.44ZM328.52,170c12.17-4.24,20.4-10,17.38-20-1.12-6.64.5-12,6.58-15.42a13.4,13.4,0,0,0,6-6.5c4.87-12,12.5-21.3,27.76-11.48-7.8,76.66-64.42,94.5-64.42,94.5C304.9,203.59,314.52,175.42,328.52,170Z" transform="translate(-250.97 -50.89)"/><g class="cls-5"><path class="cls-7" d="M443.85,63.62c1.71.95,3.4,2,5.07,3.05a78.45,78.45,0,0,1,7.66,5.7,39,39,0,0,0-9.89-7.71C445.75,64.3,444.8,64,443.85,63.62Z" transform="translate(-250.97 -50.89)"/><path class="cls-6" d="M457,72l-.72.74a77.22,77.22,0,0,0-7.6-5.65c-1.61-1.06-3.31-2.08-5-3l.41-.94c1,.33,1.92.69,2.87,1.05A40,40,0,0,1,457,72Z" transform="translate(-250.97 -50.89)"/></g><g class="cls-3"><path class="cls-4" d="M311.64,284.07l-1.73.54a16.32,16.32,0,0,1,6,2.17,68.11,68.11,0,0,1,8.43,6.19c5.45,5.15,12.2,5.83,16.72,3a17.05,17.05,0,0,1-7.24-4.17,68.22,68.22,0,0,0-8.43-6.2A16.46,16.46,0,0,0,311.64,284.07ZM378,112.91a26.19,26.19,0,0,1,8.18,3.7c-6.15,60.36-42.54,84.25-57.75,91.68a15.26,15.26,0,0,0,2.81,1.61s44.57-3.34,61.5-72.69a99.34,99.34,0,0,0,1.94-13.14c.89-8.7-8.07-15.39-15.93-11.56ZM289,134.39c-31.67,48.5-41.63,97-30.49,133,9.11,17.5,22.34,23.22,38.93,19.26-12.2,0-22.15-6.44-29.45-20.46-11.14-36-1.18-84.5,30.49-133,29.67-45.42,66.5-72.68,101.51-79C362.21,56.91,321.32,84.83,289,134.39Z" transform="translate(-250.97 -50.89)"/></g><g class="cls-3"><path class="cls-4" d="M302.16,285.27c-1.61.55-3.2,1-4.76,1.38a43.8,43.8,0,0,0,12.51-2A16.63,16.63,0,0,0,302.16,285.27Z" transform="translate(-250.97 -50.89)"/><path class="cls-6" d="M312.22,284.45l-2.16.66a44.4,44.4,0,0,1-12.66,2.05l-4.46,0,4.34-1c1.54-.37,3.09-.82,4.72-1.37h0a17.07,17.07,0,0,1,8-.67Zm-10,1.33a43.41,43.41,0,0,0,4.43-.83,16.22,16.22,0,0,0-4.36.81h0Z" transform="translate(-250.97 -50.89)"/></g><path class="cls-4" d="M416.55,54.61l17.55,7.82c-28-9-32.13,27.56-28.85,64.33a.8.8,0,0,1-1.57.27C394.57,92.64,399,68.63,416.55,54.61Z" transform="translate(-250.97 -50.89)"/><path class="cls-4" d="M380,154.74c8.55,16.64,26.24,39.35,24.92,11.11l-.71-34.46s6.76,30.38,6,46.11c-1.73,11.65-16.35,19-34.16-13.81" transform="translate(-250.97 -50.89)"/><path class="cls-4" d="M353.49,134a10.64,10.64,0,0,1-7.42-10c-3.47-40.34,21.69-49,28.09-18.73l4.64,2c-4.61-32.39-26.62-34.14-34-8-3.91,16.18-3.37,31,.93,44.72" transform="translate(-250.97 -50.89)"/><path class="cls-4" d="M352.06,193.23c3.28,34-16.09,56.34-27.07,43.4,0,0-7.61-9.14-.53-26.06l-6.72,2.65c-5.78,47.15,32.58,42.85,39.48-4.17l2.16-23.58" transform="translate(-250.97 -50.89)"/><path class="cls-4" d="M318.81,176.63c1.38-13.83-1.77-36.79-12.76-31.66a10.73,10.73,0,0,0-4.22,3.66c-2.4,3.46-6.76,11.5-6.53,24.17l-4.87-2.17c2.9-13.51,7.49-28.92,17.93-29.68a11,11,0,0,1,9.64,4.82c2.52,3.58,4.88,7.88,5.56,12.22a12.53,12.53,0,0,0,7.7,9.25" transform="translate(-250.97 -50.89)"/><path class="cls-4" d="M297.86,197.46s-3.11,1.24-2,10.41c5.07,21.43,3.44,49.27-10,47.94a1.28,1.28,0,0,1-.53-2.38c12.33-7.08,8.21-34.67,2.3-57.27" transform="translate(-250.97 -50.89)"/><path class="cls-6" d="M473,208.7a250,250,0,0,1-19.06,34.71c-23.37,35.79-51.72,61.37-82,74-29.94,12.48-59.6,10.75-83.52-4.87S251.27,270.39,251,237.73c-.28-32.34,12.29-69.64,35.4-105C309.74,96.91,337.87,71.41,367.72,59c29.54-12.32,59-10.5,82.89,5.12S488,106.17,488.66,138.6C489.09,160.78,483.72,184.56,473,208.7Zm-200.1-38.51c-10.42,23.39-15.88,46.55-15.69,67.49.26,30.52,12.56,55.26,34.61,69.66s49.77,16,77.76,4.34c28.7-12,56.82-37.4,79.18-71.65s34.35-70.23,33.76-101.31c-.58-30.32-13.1-55-35.25-69.45C424.76,54.6,398.09,53,370.11,64.68c-28.71,12-55.87,36.65-78.55,71.4A245.51,245.51,0,0,0,272.86,170.19Z" transform="translate(-250.97 -50.89)"/><path class="cls-6" d="M384.16,153a136,136,0,0,1-14.28,24.23C347.49,208,321,221.77,305.34,210.63c-6.57-4.69-10.13-12.67-9.78-21.89a3.09,3.09,0,0,1,6.18.23c-.27,7.11,2.35,13.17,7.2,16.63,12.46,8.9,36-4.58,55.94-32,10.12-13.94,16.87-28.08,19-39.84,2-10.84-.1-19.09-5.8-23.23C372,106.06,363,107,352.72,113a3.09,3.09,0,1,1-3.13-5.33c12.53-7.35,23.94-8.12,32.12-2.17,7.73,5.62,10.66,16,8.26,29.35A80.45,80.45,0,0,1,384.16,153Z" transform="translate(-250.97 -50.89)"/><path class="cls-6" d="M389,117.87a2.38,2.38,0,0,1-.23.41,3.08,3.08,0,0,1-4.27.93c-5-3.2-9.24-4.28-12.65-3.21-4,1.27-7.46,5.6-10.58,13.26a16.29,16.29,0,0,1-7.32,8c-4.43,2.47-6,6.18-5.06,12,4.44,15.32-13.48,21.57-19.39,23.63-7,2.69-13.38,13.26-13.62,22.57-.11,4.32,1,10,7.14,12.76a3.09,3.09,0,0,1-2.52,5.65c-7.09-3.16-11-9.92-10.81-18.56.31-11.92,8.24-24.58,17.68-28.22,16.3-5.69,17-11.4,15.54-16.25a2.34,2.34,0,0,1-.09-.38c-1.44-8.56,1.29-14.83,8.13-18.64a10.11,10.11,0,0,0,4.59-5c2.46-6,6.64-14.35,14.45-16.81,5.24-1.66,11.25-.35,17.86,3.9A3.1,3.1,0,0,1,389,117.87Z" transform="translate(-250.97 -50.89)"/><path class="cls-6" d="M347.78,292.61a13.59,13.59,0,0,1-5.09,6c-6.06,3.81-14.25,2.48-20.41-3.29a65,65,0,0,0-8-5.87,13.36,13.36,0,0,0-11.15-1.22c-21.1,7.08-37.06.54-47.44-19.42a3.09,3.09,0,1,1,5.49-2.85c8.89,17.08,22,22.45,40,16.41a19.48,19.48,0,0,1,16.31,1.79,70.32,70.32,0,0,1,8.83,6.47l.14.12c4.72,4.46,9.89,4.53,12.93,2.62,3.54-2.22,4.52-7.08,2.63-13a1.82,1.82,0,0,1-.07-.25c-3.65-15.86.57-29.83,12.52-41.54A3.1,3.1,0,0,1,358.8,243c-10.43,10.2-14,21.85-10.85,35.61C349.78,284.39,349.35,289.09,347.78,292.61Z" transform="translate(-250.97 -50.89)"/><path class="cls-6" d="M438.42,186.24c-1.76,3.94-5.16,7.08-10.12,9.32l-.17.07C411.52,202,412.54,209.82,413,212.56c2.61,11,.4,22.28-5.92,30.29-5.49,6.94-13.71,10.75-23.16,10.72a3.89,3.89,0,0,1-.49,0c-27.16-4.5-33.77,5.09-36.65,15.06a3.09,3.09,0,1,1-5.94-1.72c5-17.3,18.77-23.5,43.34-19.49,7.51,0,13.74-2.92,18-8.37,5.11-6.46,6.92-16.08,4.74-25.12a2,2,0,0,1-.05-.24c-1.66-10.31,4.71-18.3,18.94-23.76,3.82-1.75,6.18-4,7.19-6.81,2.22-6.17-1.76-15.7-5.94-24.21a3.09,3.09,0,1,1,5.55-2.73c5,10.16,9.2,20.71,6.22,29C438.72,185.53,438.57,185.89,438.42,186.24Z" transform="translate(-250.97 -50.89)"/><path class="cls-6" d="M466.71,139.74c-1.86,4.19-6.12,7.19-12.68,8.93a56.75,56.75,0,0,0-20.54,9.88,65.94,65.94,0,0,0-11.09,10.78,3.09,3.09,0,1,1-4.84-3.85,71.74,71.74,0,0,1,12.12-11.8,63,63,0,0,1,22.77-11c5-1.33,8-3.39,8.85-6.1,1.2-3.86-1.58-10-7.83-17.32a33.47,33.47,0,0,1-6.82-29.15c2.88-12.55-1.74-21.66-14.53-28.67a3.09,3.09,0,1,1,3-5.43c15.37,8.43,21.13,20,17.6,35.48a27.26,27.26,0,0,0,5.48,23.75c7.91,9.25,10.95,17.05,9,23.18A11.43,11.43,0,0,1,466.71,139.74Z" transform="translate(-250.97 -50.89)"/><path class="cls-6" d="M355,300.38a11,11,0,0,1,8.95,2c4.32,3.17,13.82,9.45,24.31,11.91,15.14,4.87,10.72,27.36-23.41,13.28C347,319.7,344.47,302.86,355,300.38Z" transform="translate(-250.97 -50.89)"/><g class="cls-3"><path class="cls-4" d="M369.68,323.79c12.3,5.07,20.73,5.4,25.8,3.5-3,5-12.72,7.68-30.68.26-17.61-7.77-20.28-24.31-10.19-27.08C351.39,306.55,356.08,317.79,369.68,323.79Z" transform="translate(-250.97 -50.89)"/></g><path class="cls-6" d="M484.16,149.67c11.89,6.41,20.67,8,25.4,3.24a7.82,7.82,0,0,0,.74-10c-14.53-20.67-29.12-16.6-32.08-7A11.87,11.87,0,0,0,484.16,149.67Z" transform="translate(-250.97 -50.89)"/><g class="cls-3"><path class="cls-4" d="M486.06,128.41a11,11,0,0,0-2.25,4.07,11.88,11.88,0,0,0,5.94,13.76c8.61,4.65,15.59,6.74,20.59,5.75a6.78,6.78,0,0,1-.78.92c-4.73,4.74-13.51,3.18-25.4-3.24a11.85,11.85,0,0,1-5.93-13.75A10.92,10.92,0,0,1,486.06,128.41Z" transform="translate(-250.97 -50.89)"/></g><path class="cls-6" d="M398.7,327.78a10.85,10.85,0,0,1-3.07,4c-3.62,2.94-12.59,6.68-32-1.33-13.25-5.85-18.55-16.13-17.9-23.23a10.73,10.73,0,0,1,8.51-9.82h0a14,14,0,0,1,11.5,2.51c4.45,3.26,13.38,9.09,23.19,11.39l.24.07c5.43,1.75,9.36,5.73,10.23,10.4A10.11,10.11,0,0,1,398.7,327.78ZM352.33,306a5.53,5.53,0,0,0-.45,1.81c-.47,5.12,4.25,12.59,14.17,17,17.48,7.21,24.07,3.52,25.67,2.22a4,4,0,0,0,1.59-4.07c-.35-1.89-2.1-4.35-5.94-5.62-10.82-2.57-20.49-8.87-25.3-12.4a7.84,7.84,0,0,0-6.41-1.47h0A4.52,4.52,0,0,0,352.33,306Z" transform="translate(-250.97 -50.89)"/><path class="cls-6" d="M513.94,151.92a10.64,10.64,0,0,1-2.19,3.18c-5.66,5.67-15.17,4.78-29.06-2.7h0A14.93,14.93,0,0,1,475.27,135a14.11,14.11,0,0,1,11.36-9.88c8.55-1.35,18.1,4.48,26.2,16A11,11,0,0,1,513.94,151.92Zm-32.39-16.07a7.63,7.63,0,0,0-.37,1A8.74,8.74,0,0,0,485.62,147h0c7.57,4.08,17.49,8.05,21.76,3.78a4.76,4.76,0,0,0,.39-6c-9.5-13.52-17.27-13.91-20.18-13.45A7.82,7.82,0,0,0,481.55,135.85Zm2.61,13.82h0Z" transform="translate(-250.97 -50.89)"/><path class="cls-4" d="M267.14,217.74c-.73,13.8-.17,26.42,8.55,31.56a1.55,1.55,0,0,1-.52,2.87c-8.92,1.3-16.84-11.29-9.58-34.71A.79.79,0,0,1,267.14,217.74Z" transform="translate(-250.97 -50.89)"/><g class="cls-5"><path class="cls-6" d="M434.45,59.21c14.86,8.47,18,19.41,15.22,31.59a30.19,30.19,0,0,0,6.15,26.46c11.88,13.89,12.55,24.41-2.58,28.42a59.91,59.91,0,0,0-21.65,10.43c-.59.46-1.17.93-1.74,1.4,8.14,16.57,11.21,28.89-2.82,35.23-12.3,4.69-18.56,11.32-17.09,20.43,4.28,17.69-5.18,37.37-26,37.3-1.45-.24-2.86-.43-4.21-.61a9.38,9.38,0,0,1,2.16-1.15c18.65-7.49,9.38-31.37,9.38-31.37-4.21-27.27,17.57-21.05,24.53-31.17,1.59-2.32,2-3.87,1.56-4.88-2.17-5.57-1.58-11.83,2.54-16.16,5.45-5.72,9.95-10.09,9.95-10.09,17.91-9.88,25.94-19,16.65-26.81-14.77-10.34-15.22-18.89-15.22-18.89,2.28-40.9-28.89-54.45-77.37-39l-.2-.85C381.24,53.35,409.6,49.5,434.45,59.21Z" transform="translate(-250.97 -50.89)"/></g><g class="cls-5"><path class="cls-6" d="M294.2,172.31a19.41,19.41,0,0,1,7.09-.17,9.57,9.57,0,0,0,9.48-4c3.26-4.65,8.35-10.44,14.82-13.06,11.71-4.73,6.13-16.25,11.46-22.34s16.59-13.84,17.53-24.25c13.1-5.16,23.11-4.88,27.25,5.75,0,0-14.18-4.55-22.21,12,0,0-7.11,8.12-11.47,12s.54,13.49-1.7,17.06-1.49,8.23-8,11.37-20,4.27-24.12,19.92,9.07,25.28,9.07,25.28-24.35-2.34-24.68-19.15S299.17,176.78,294.2,172.31Z" transform="translate(-250.97 -50.89)"/></g></g><g class="cls-1"><path class="cls-2" d="M1447.62,66.67c-47.31,30.89-49.62,102.71-2.39,175.05,18.87,28.89,40.83,50.52,63.43,64.1a129.65,129.65,0,0,0,16.7,8.52c28.63,12.08,57.31,11.13,81.09-4.4,15.59-10.19,26.15-24.86,31.62-42.55,11.14-36,1.18-84.5-30.49-133-42.58-65.22-99.94-93-145.48-75.18A78.54,78.54,0,0,0,1447.62,66.67Z" transform="translate(-250.97 -50.89)"/><g class="cls-3"><path class="cls-4" d="M1585.56,105.37a257.12,257.12,0,0,1,16.17,22.15c31.67,48.5,41.63,97,30.49,133-5.47,17.69-16,32.36-31.62,42.55-40.4,26.38-94.94,10.7-139.41-39.5,45.46,55.6,103.07,73.92,145.26,46.37,15.59-10.19,26.15-24.86,31.62-42.55,11.14-36,1.18-84.5-30.49-133A249.41,249.41,0,0,0,1585.56,105.37Z" transform="translate(-250.97 -50.89)"/></g><g class="cls-5"><path class="cls-6" d="M1452.7,63.62c-1.72.95-3.41,2-5.08,3.05a78.31,78.31,0,0,0-7.65,5.7c-39.76,33.4-39.27,101.15,5.26,169.35,18.87,28.89,40.83,50.52,63.43,64.1,1.17.69,2.33,1.38,3.5,2,.46.25.91.51,1.37.75a120.89,120.89,0,0,0,11.83,5.73l.93-1.53,6.36-10.44s-1.11-8.32-12.83-3.33a13.45,13.45,0,0,1-14.29-2.5,229.39,229.39,0,0,1-37.15-44.33c-20.49-31.37-31.65-62.64-33.88-90.52a6.13,6.13,0,0,1,8.78-6,54.51,54.51,0,0,1,9.43,5.89c.59.46,1.17.92,1.74,1.39-8.14,16.58-11.21,28.89,2.82,35.24,12.3,4.69,18.56,11.31,17.09,20.42-4.28,17.7,5.18,37.38,26,37.31,1.45-.24,2.86-.44,4.21-.61,10.27-1.27,18-.47,23.76,2.29,6.18,3,10,8.2,12.15,15.57a44,44,0,0,1-1.18,11.68c-5.35,16.77,10.09,23.53,20.64,13.57a68.22,68.22,0,0,1,8.43-6.2,16.5,16.5,0,0,1,13.74-1.5c18.84,6.31,33.72,1.26,43.69-17.88,11.14-36,1.18-84.5-30.49-133C1576,110.2,1553.58,88.3,1530.62,74.9a122.94,122.94,0,0,0-22.33-10.3C1489.11,58.08,1470.1,57.59,1452.7,63.62Zm73.16,69.92a13.31,13.31,0,0,0,6,6.5c6.08,3.39,7.7,8.79,6.58,15.43-3,10,5.21,15.78,17.39,20,14,5.39,23.61,33.55,6.73,41.07,0,0-56.62-17.83-64.42-94.49C1513.36,112.25,1521,121.58,1525.86,133.54Z" transform="translate(-250.97 -50.89)"/></g><g class="cls-5"><path class="cls-7" d="M1452.7,63.62c17.4-6,36.41-5.54,55.59,1a90.85,90.85,0,0,1,34.2,4.62c-27.44-15.91-55.66-19.68-80.39-10A75.6,75.6,0,0,0,1452.7,63.62Z" transform="translate(-250.97 -50.89)"/><path class="cls-6" d="M1461.91,58.73c24.46-9.56,53.17-6,80.84,10.05l4.24,2.46-4.66-1.53a90.46,90.46,0,0,0-34-4.6l-.2,0c-19.18-6.51-38.29-6.85-55.26-1l-.42-.94A76.94,76.94,0,0,1,1461.91,58.73Zm76.14,8.62c-26.08-13.89-52.83-16.63-75.77-7.66-1.38.54-2.74,1.11-4.09,1.73,15.7-4.09,32.91-3.19,50.17,2.66A89.07,89.07,0,0,1,1538.05,67.35Z" transform="translate(-250.97 -50.89)"/></g><path class="cls-6" d="M1462.1,59.21c-14.86,8.47-18,19.41-15.23,31.59a30.19,30.19,0,0,1-6.15,26.46c-11.88,13.89-12.55,24.41,2.58,28.42A60,60,0,0,1,1465,156.11c.59.46,1.16.93,1.73,1.4-8.14,16.57-11.21,28.89,2.83,35.23,12.29,4.69,18.55,11.32,17.08,20.43-4.27,17.69,5.19,37.37,26,37.3,1.45-.24,2.85-.43,4.2-.61,10.28-1.27,18-.47,23.76,2.3,6.18,3,10,8.2,12.15,15.56a43.55,43.55,0,0,1-1.17,11.68c-5.36,16.78,10.09,23.53,20.63,13.57a67.44,67.44,0,0,1,8.44-6.19,16.48,16.48,0,0,1,13.73-1.51c18.84,6.32,33.72,1.26,43.69-17.88,11.14-36,1.18-84.5-30.49-133-19.36-29.65-41.76-51.54-64.72-64.95C1515.3,53.35,1487,49.5,1462.1,59.21Zm112.66,151.9s-56.62-17.84-64.42-94.5c15.27-9.82,22.89-.48,27.77,11.48a13.38,13.38,0,0,0,6,6.5c6.08,3.38,7.7,8.78,6.58,15.42-3,10,5.22,15.78,17.39,20C1582,175.42,1591.64,203.59,1574.76,211.11Z" transform="translate(-250.97 -50.89)"/><g class="cls-5"><path class="cls-7" d="M1449.85,64.66a39,39,0,0,0-9.88,7.71,78.31,78.31,0,0,1,7.65-5.7c1.67-1.09,3.36-2.1,5.08-3.05C1451.74,64,1450.8,64.3,1449.85,64.66Z" transform="translate(-250.97 -50.89)"/><path class="cls-6" d="M1439.58,72l.72.74a77.22,77.22,0,0,1,7.6-5.65c1.62-1.06,3.31-2.08,5-3l-.41-.94c-1,.33-1.91.69-2.86,1.05A39.86,39.86,0,0,0,1439.58,72Z" transform="translate(-250.97 -50.89)"/></g><g class="cls-3"><path class="cls-4" d="M1571.17,285.57a69.06,69.06,0,0,0-8.44,6.2,17.05,17.05,0,0,1-7.24,4.17c4.52,2.86,11.27,2.18,16.72-3a67.44,67.44,0,0,1,8.44-6.19,16.19,16.19,0,0,1,6-2.17q-.87-.25-1.74-.54A16.44,16.44,0,0,0,1571.17,285.57Zm-53.4-173.06c-7.86-3.83-16.82,2.86-15.93,11.56a99.29,99.29,0,0,0,2,13.14c16.93,69.35,61.49,72.69,61.49,72.69a15.26,15.26,0,0,0,2.81-1.61c-15.21-7.43-51.6-31.32-57.75-91.68a26.39,26.39,0,0,1,8.18-3.7C1518.28,112.77,1518,112.64,1517.77,112.51Zm-21.18-58.34c35,6.33,71.84,33.59,101.51,79,31.67,48.51,41.63,97,30.5,133-7.31,14-17.25,20.48-29.46,20.46,16.59,4,29.82-1.76,38.93-19.26,11.14-36,1.18-84.5-30.49-133C1575.22,84.83,1534.34,56.91,1496.59,54.17Z" transform="translate(-250.97 -50.89)"/></g><g class="cls-3"><path class="cls-4" d="M1586.64,284.61a43.68,43.68,0,0,0,12.5,2c-1.56-.38-3.14-.83-4.76-1.38A16.6,16.6,0,0,0,1586.64,284.61Z" transform="translate(-250.97 -50.89)"/><path class="cls-6" d="M1586.56,284.11a17,17,0,0,1,8,.67h0c1.64.55,3.18,1,4.72,1.37l4.35,1-4.47,0a44.39,44.39,0,0,1-12.65-2.05l-2.17-.66Zm7.65,1.65h0a16.15,16.15,0,0,0-4.35-.81,42.73,42.73,0,0,0,4.42.83Z" transform="translate(-250.97 -50.89)"/></g><path class="cls-4" d="M1480,54.61l-17.54,7.82c28-9,32.12,27.56,28.84,64.33a.8.8,0,0,0,1.57.27C1502,92.64,1497.51,68.63,1480,54.61Z" transform="translate(-250.97 -50.89)"/><path class="cls-4" d="M1516.59,154.74c-8.55,16.64-26.25,39.35-24.92,11.11l.7-34.46s-6.75,30.38-5.95,46.11c1.72,11.65,16.35,19,34.15-13.81" transform="translate(-250.97 -50.89)"/><path class="cls-4" d="M1543.05,134a10.64,10.64,0,0,0,7.42-10c3.47-40.34-21.69-49-28.09-18.73l-4.64,2c4.61-32.39,26.62-34.14,34-8,3.91,16.18,3.38,31-.93,44.72" transform="translate(-250.97 -50.89)"/><path class="cls-4" d="M1544.48,193.23c-3.27,34,16.09,56.34,27.08,43.4,0,0,7.61-9.14.53-26.06l6.72,2.65c5.77,47.15-32.59,42.85-39.49-4.17l-2.15-23.58" transform="translate(-250.97 -50.89)"/><path class="cls-4" d="M1577.74,176.63c-1.38-13.83,1.76-36.79,12.76-31.66a10.78,10.78,0,0,1,4.21,3.66c2.41,3.46,6.76,11.5,6.53,24.17l4.87-2.17c-2.9-13.51-7.49-28.92-17.93-29.68a11,11,0,0,0-9.64,4.82c-2.52,3.58-4.88,7.88-5.56,12.22a12.53,12.53,0,0,1-7.7,9.25" transform="translate(-250.97 -50.89)"/><path class="cls-4" d="M1598.69,197.46s3.11,1.24,2,10.41c-5.07,21.43-3.44,49.27,10,47.94a1.28,1.28,0,0,0,.52-2.38c-12.33-7.08-8.21-34.67-2.29-57.27" transform="translate(-250.97 -50.89)"/><path class="cls-6" d="M1407.88,138.6c.62-32.43,14.13-58.89,38-74.51s53.36-17.44,82.89-5.12c29.85,12.44,58,37.94,81.35,73.73,23.11,35.39,35.68,72.69,35.39,105-.28,32.66-13.57,59.22-37.41,74.79s-53.58,17.35-83.52,4.87c-30.27-12.61-58.62-38.19-82-74a250,250,0,0,1-19.06-34.71C1412.83,184.56,1407.46,160.78,1407.88,138.6ZM1605,136.08c-22.69-34.75-49.85-59.44-78.55-71.4-28-11.67-54.66-10.08-77.13,4.59-22.15,14.46-34.67,39.13-35.24,69.45-.6,31.08,11.39,67.06,33.75,101.31s50.48,59.69,79.18,71.65c28,11.67,55.61,10.13,77.76-4.34s34.35-39.14,34.62-69.66c.18-20.94-5.28-44.1-15.7-67.49A246.47,246.47,0,0,0,1605,136.08Z" transform="translate(-250.97 -50.89)"/><path class="cls-6" d="M1512.39,153a135.9,135.9,0,0,0,14.27,24.23c22.4,30.83,48.94,44.58,64.54,33.44,6.57-4.69,10.14-12.67,9.79-21.89a3.09,3.09,0,0,0-6.18.23c.26,7.11-2.36,13.17-7.21,16.63-12.46,8.9-36-4.58-55.93-32-10.13-13.94-16.88-28.08-19-39.84-2-10.84.1-19.09,5.81-23.23,6.07-4.42,15.07-3.53,25.35,2.49a3.09,3.09,0,1,0,3.13-5.33c-12.53-7.35-23.94-8.12-32.12-2.17-7.73,5.62-10.66,16-8.25,29.35A79.45,79.45,0,0,0,1512.39,153Z" transform="translate(-250.97 -50.89)"/><path class="cls-6" d="M1507.51,117.87a3.3,3.3,0,0,0,.23.41,3.08,3.08,0,0,0,4.27.93c5-3.2,9.24-4.28,12.65-3.21,4,1.27,7.46,5.6,10.58,13.26a16.29,16.29,0,0,0,7.32,8c4.44,2.47,6,6.18,5.06,12-4.44,15.32,13.48,21.57,19.39,23.63,7,2.69,13.39,13.26,13.62,22.57.11,4.32-1,10-7.13,12.76a3.09,3.09,0,1,0,2.52,5.65c7.08-3.16,11-9.92,10.8-18.56-.31-11.92-8.24-24.58-17.68-28.22-16.3-5.69-17-11.4-15.54-16.25a2.34,2.34,0,0,0,.09-.38c1.45-8.56-1.29-14.83-8.12-18.64a10.09,10.09,0,0,1-4.6-5c-2.46-6-6.64-14.35-14.44-16.81-5.25-1.66-11.26-.35-17.86,3.9A3.1,3.1,0,0,0,1507.51,117.87Z" transform="translate(-250.97 -50.89)"/><path class="cls-6" d="M1548.76,292.61a13.54,13.54,0,0,0,5.1,6c6.05,3.81,14.24,2.48,20.4-3.29a65,65,0,0,1,8-5.87,13.36,13.36,0,0,1,11.15-1.22c21.1,7.08,37.06.54,47.44-19.42a3.09,3.09,0,1,0-5.49-2.85c-8.88,17.08-22,22.45-40,16.41a19.49,19.49,0,0,0-16.31,1.79,70.32,70.32,0,0,0-8.83,6.47l-.14.12c-4.72,4.46-9.89,4.53-12.93,2.62-3.54-2.22-4.52-7.08-2.63-13a1.82,1.82,0,0,0,.07-.25c3.65-15.86-.56-29.83-12.51-41.54a3.1,3.1,0,1,0-4.33,4.43c10.42,10.2,14,21.85,10.84,35.61C1546.76,284.39,1547.19,289.09,1548.76,292.61Z" transform="translate(-250.97 -50.89)"/><path class="cls-6" d="M1458.13,186.24c1.75,3.94,5.15,7.08,10.11,9.32l.18.07c16.6,6.34,15.58,14.19,15.14,16.93-2.61,11-.4,22.28,5.93,30.29,5.48,6.94,13.71,10.75,23.15,10.72a4.21,4.21,0,0,0,.5,0c27.16-4.5,33.76,5.09,36.64,15.06a3.09,3.09,0,0,0,5.94-1.72c-5-17.3-18.77-23.5-43.34-19.49-7.51,0-13.74-2.92-18-8.37-5.1-6.46-6.92-16.08-4.73-25.12a2,2,0,0,0,0-.24c1.67-10.31-4.71-18.3-18.94-23.76-3.82-1.75-6.17-4-7.19-6.81-2.21-6.17,1.76-15.7,6-24.21a3.09,3.09,0,0,0-5.55-2.73c-5,10.16-9.21,20.71-6.22,29C1457.83,185.53,1458,185.89,1458.13,186.24Z" transform="translate(-250.97 -50.89)"/><path class="cls-6" d="M1429.83,139.74c1.87,4.19,6.12,7.19,12.68,8.93a56.67,56.67,0,0,1,20.54,9.88,65.94,65.94,0,0,1,11.09,10.78,3.09,3.09,0,1,0,4.84-3.85,71.74,71.74,0,0,0-12.12-11.8,62.83,62.83,0,0,0-22.76-11c-5-1.33-8-3.39-8.86-6.1-1.2-3.86,1.58-10,7.83-17.32a33.47,33.47,0,0,0,6.82-29.15c-2.87-12.55,1.75-21.66,14.54-28.67a3.1,3.1,0,0,0-3-5.43c-15.37,8.43-21.13,20-17.59,35.48a27.23,27.23,0,0,1-5.49,23.75c-7.9,9.25-10.95,17.05-9,23.18A11.38,11.38,0,0,0,1429.83,139.74Z" transform="translate(-250.97 -50.89)"/><path class="cls-6" d="M1541.6,300.38a10.94,10.94,0,0,0-8.95,2c-4.32,3.17-13.83,9.45-24.32,11.91-15.14,4.87-10.72,27.36,23.41,13.28C1549.55,319.7,1552.08,302.86,1541.6,300.38Z" transform="translate(-250.97 -50.89)"/><g class="cls-3"><path class="cls-4" d="M1526.86,323.79c-12.3,5.07-20.73,5.4-25.8,3.5,3,5,12.72,7.68,30.68.26,17.62-7.77,20.28-24.31,10.2-27.08C1545.15,306.55,1540.46,317.79,1526.86,323.79Z" transform="translate(-250.97 -50.89)"/></g><path class="cls-6" d="M1412.39,149.67c-11.89,6.41-20.68,8-25.41,3.24a7.83,7.83,0,0,1-.74-10c14.53-20.67,29.12-16.6,32.08-7A11.87,11.87,0,0,1,1412.39,149.67Z" transform="translate(-250.97 -50.89)"/><g class="cls-3"><path class="cls-4" d="M1410.49,128.41a11.16,11.16,0,0,1,2.24,4.07,11.87,11.87,0,0,1-5.94,13.76c-8.6,4.65-15.58,6.74-20.58,5.75a6.06,6.06,0,0,0,.77.92c4.73,4.74,13.51,3.18,25.41-3.24a11.87,11.87,0,0,0,5.93-13.75A10.92,10.92,0,0,0,1410.49,128.41Z" transform="translate(-250.97 -50.89)"/></g><path class="cls-6" d="M1497.15,321.74c.88-4.67,4.8-8.65,10.24-10.4l.23-.07c9.82-2.3,18.75-8.13,23.2-11.39a14,14,0,0,1,11.49-2.51h0a10.72,10.72,0,0,1,8.51,9.82c.65,7.1-4.65,17.38-17.9,23.23-19.42,8-28.39,4.27-32,1.33a10.64,10.64,0,0,1-3.07-4A10,10,0,0,1,1497.15,321.74Zm43.73-18.35h0a7.82,7.82,0,0,0-6.4,1.47c-4.81,3.53-14.48,9.83-25.31,12.4-3.84,1.27-5.59,3.73-5.94,5.62a4,4,0,0,0,1.59,4.07c1.6,1.3,8.19,5,25.67-2.22,9.93-4.38,14.64-11.85,14.17-17a5.79,5.79,0,0,0-.44-1.81A4.54,4.54,0,0,0,1540.88,303.39Z" transform="translate(-250.97 -50.89)"/><path class="cls-6" d="M1383.71,141.13c8.1-11.52,17.65-17.35,26.21-16a14.14,14.14,0,0,1,11.36,9.88,15,15,0,0,1-7.43,17.39h0c-13.89,7.48-23.4,8.37-29.06,2.7a10.64,10.64,0,0,1-2.19-3.18A11,11,0,0,1,1383.71,141.13Zm25.24-9.89c-2.9-.46-10.68-.07-20.18,13.45a4.76,4.76,0,0,0,.4,6c4.26,4.27,14.18.3,21.75-3.78h0a8.73,8.73,0,0,0,4.44-10.12,7.59,7.59,0,0,0-.36-1A7.86,7.86,0,0,0,1409,131.24Zm3.43,18.42h0Z" transform="translate(-250.97 -50.89)"/><path class="cls-4" d="M1629.4,217.74c.73,13.8.17,26.42-8.55,31.56a1.55,1.55,0,0,0,.52,2.87c8.93,1.3,16.84-11.29,9.58-34.71A.79.79,0,0,0,1629.4,217.74Z" transform="translate(-250.97 -50.89)"/><g class="cls-5"><path class="cls-6" d="M1462.1,59.21c-14.86,8.47-18,19.41-15.23,31.59a30.19,30.19,0,0,1-6.15,26.46c-11.88,13.89-12.55,24.41,2.58,28.42A60,60,0,0,1,1465,156.11c.59.46,1.16.93,1.73,1.4-8.14,16.57-11.21,28.89,2.83,35.23,12.29,4.69,18.55,11.32,17.08,20.43-4.27,17.69,5.19,37.37,26,37.3,1.45-.24,2.85-.43,4.2-.61a9.5,9.5,0,0,0-2.15-1.15c-18.66-7.49-9.39-31.37-9.39-31.37,4.21-27.27-17.56-21.05-24.52-31.17-1.6-2.32-2-3.87-1.56-4.88,2.17-5.57,1.58-11.83-2.55-16.16-5.45-5.72-9.94-10.09-9.94-10.09-17.92-9.88-26-19-16.66-26.81,14.77-10.34,15.22-18.89,15.22-18.89-2.28-40.9,28.89-54.45,77.37-39l.2-.85C1515.3,53.35,1487,49.5,1462.1,59.21Z" transform="translate(-250.97 -50.89)"/></g><g class="cls-5"><path class="cls-6" d="M1602.34,172.31a19.36,19.36,0,0,0-7.08-.17,9.58,9.58,0,0,1-9.49-4c-3.25-4.65-8.35-10.44-14.82-13.06-11.71-4.73-6.12-16.25-11.46-22.34s-16.59-13.84-17.52-24.25c-13.11-5.16-23.12-4.88-27.25,5.75,0,0,14.17-4.55,22.21,12,0,0,7.1,8.12,11.47,12s-.55,13.49,1.69,17.06,1.49,8.23,8,11.37,20,4.27,24.11,19.92-9.07,25.28-9.07,25.28,24.36-2.34,24.68-19.15S1597.37,176.78,1602.34,172.31Z" transform="translate(-250.97 -50.89)"/></g></g><path class="cls-8" d="M584.74,132.09c-5.27-15.8-13.91-24.44-31-24.44A35.73,35.73,0,0,0,541.54,110c-27.19,11-21.5,47-16.23,69.33,1.9,8.85,10.75,25.08,1.05,30.77-1.89,1.05-5.69,1.47-9.9,1.47-4.43,0-16.44,0-18.12-5.48-3.17-9.48,9.48-33.71,12-43.41,5.06-19.6,9.27-43.62-13.28-52.89a44.91,44.91,0,0,0-16.65-3.17c-8,0-16.43,2.32-22.33,7.8-8.43,7.8-15.6,20.65-20.87,35.62-16.23,46.57-11,91.46,28.24,110.21,15,7.17,31.61,9.28,48.05,9.28,6.53,0,13.7-.22,20.44-.43C606.66,266.12,599.91,177.19,584.74,132.09Zm-100.52-1.47C481.69,142.21,466.3,161,453,161c-4.85,0-8-3.59-7.17-12.44,1.69-13.91,7.17-25.5,19.6-32.24,3.79-2.11,7.8-3.58,11.17-3.58C483,112.71,487.17,117.34,484.22,130.62Z" transform="translate(-250.97 -50.89)"/><path class="cls-9" d="M484.22,130.62C481.69,142.21,466.3,161,453,161c-4.85,0-8-3.59-7.17-12.44,1.69-13.91,7.17-25.5,19.6-32.24,3.79-2.11,7.8-3.58,11.17-3.58C483,112.71,487.17,117.34,484.22,130.62Z" transform="translate(-250.97 -50.89)"/><path class="cls-8" d="M689.69,163.07a34.94,34.94,0,0,0-17.7-4.84c-8.64,0-17.07,3.37-22.55,11-1.9-12-10.12-14.54-20.65-14.54-15.6,0-21.5,8.85-23.82,23.61-3.37,20.44-5.9,60.69,3.8,79.87,3.37,6.53,11.17,9.06,18.12,9.06s16.44-2.74,17.7-10.75c.42-3,.21-7.59-.21-12.85-.63-9.07-2.11-21.08,1.48-28.67,2.32-4.63,5.27-6.32,8.22-6.32,6.11,0,12.43,7.8,13.27,15.39,1.06,9.69.21,20.86-.21,27.39v1.69a13,13,0,0,0,2.53,9.48c3.58,4.85,9.91,7,15.81,7a24.39,24.39,0,0,0,4-.22l.21-.21c4.85-.84,9.48-2.95,12.65-6.95C720.46,240.62,717.3,179.72,689.69,163.07Zm8.43,38.36c-8.85,0-19.18-13.7-20.86-21.5-2.11-9.27.42-13.27,4.42-13.27,2.32,0,5.27,1.26,8,3.37A32.63,32.63,0,0,1,703,193C703.6,198.9,701.49,201.43,698.12,201.43Z" transform="translate(-250.97 -50.89)"/><path class="cls-9" d="M698.12,201.43c-8.85,0-19.18-13.7-20.86-21.5-2.11-9.27.42-13.27,4.42-13.27,2.32,0,5.27,1.26,8,3.37A32.63,32.63,0,0,1,703,193C703.6,198.9,701.49,201.43,698.12,201.43Z" transform="translate(-250.97 -50.89)"/><path class="cls-8" d="M789,211.54c-7.37,0-18.33,1.9-22.76,8.85a18.51,18.51,0,0,1-.42-3.58c-.21-4.85.84-11,4.64-13.91,1.68,2.11,8,4.43,16.86,4.43,5.27,0,10.32-.42,14.75-4,6.11-4.84,7.8-14.12,7.16-21.49-4-16.44-20-23.6-36-23.6-26.35,0-42.78,15.59-50.37,40a66.18,66.18,0,0,0-2.95,28.66c3.79,25.5,22.76,42.57,48.26,42.57,17.28,0,33.51-8.64,38.56-24S807.08,213,789,211.54Zm-25.71-31.19c-2.74,10.12-16.65,25.5-28.24,25.5-3.58,0-6.32-2.1-6.53-6.95-.84-11.59,8.43-21.92,14.54-27.4,3.79-3.37,9.49-6.53,14.33-6.53C762.61,165,766.19,169,763.24,180.35Z" transform="translate(-250.97 -50.89)"/><path class="cls-9" d="M763.24,180.35c-2.74,10.12-16.65,25.5-28.24,25.5-3.58,0-6.32-2.1-6.53-6.95-.84-11.59,8.43-21.92,14.54-27.4,3.79-3.37,9.49-6.53,14.33-6.53C762.61,165,766.19,169,763.24,180.35Z" transform="translate(-250.97 -50.89)"/><path class="cls-8" d="M866.51,134c-2.32-12.22-10.54-25.71-24.45-25.71-10.54,0-20.86,9.06-22.34,27-2.11,18.33-11.38,123.28,9.7,132.34a21.07,21.07,0,0,0,8.21,1.9c9.49,0,15.39-8.64,19-16.44C868.4,225.45,871.77,162.23,866.51,134Zm-7.38,7.8c-8,0-17.49-11-19-18.13-1.68-7.37.43-10.53,3.38-11.16.84,0,1.47-.22,2.31-.22,10.33,0,16.23,16.44,17.07,24.66C863.13,140.31,861.66,141.79,859.13,141.79Z" transform="translate(-250.97 -50.89)"/><path class="cls-9" d="M859.13,141.79c-8,0-17.49-11-19-18.13-1.68-7.37.43-10.53,3.38-11.16.84,0,1.47-.22,2.31-.22,10.33,0,16.23,16.44,17.07,24.66C863.13,140.31,861.66,141.79,859.13,141.79Z" transform="translate(-250.97 -50.89)"/><path class="cls-8" d="M935.21,156.12c-17.92,0-35.41,1.89-47,17.28-8,10.32-12.64,24.87-13.48,39.41-.85,14.75,2.31,29.29,10.11,39.83,8.43,11.59,22.13,16.86,36.25,16.86,17.7,0,37.72-4.85,43-24.24,1.69-6.95.84-12-1.9-15.8-3.16-4.22-8.64-6.33-13.91-6.33s-11.59,1.9-15.38,5.69a10.48,10.48,0,0,1-6.95,3c-4.43,0-7.8-3.37-7.59-8.21,0-4.22,1.9-7.17,5.69-7.17a15.77,15.77,0,0,1,2.53.42,74.9,74.9,0,0,0,21.49,3.37c11,0,20-1.89,26.14-12C992.32,177.4,964.71,157.59,935.21,156.12Zm-20.44,20.44c-3.8,7.16-17.28,16.86-25.92,16.86-3.59,0-5.48-2.11-3.38-7.59,3.59-8.64,11.59-17.91,20.45-21.28a10.49,10.49,0,0,1,5.05-1.27C915.82,163.28,920,166.87,914.77,176.56Zm21.49,23.6c-4,0-9.48-1.47-11.38-5.27-2.11-4.84-3.16-13.27,6.32-13.48,6.12,0,13.49,2.31,15.6,8.85C948.7,197,942.58,200.16,936.26,200.16Z" transform="translate(-250.97 -50.89)"/><path class="cls-9" d="M936.26,200.16c-4,0-9.48-1.47-11.38-5.27-2.11-4.84-3.16-13.27,6.32-13.48,6.12,0,13.49,2.31,15.6,8.85C948.7,197,942.58,200.16,936.26,200.16Z" transform="translate(-250.97 -50.89)"/><path class="cls-9" d="M914.77,176.56c-3.8,7.16-17.28,16.86-25.92,16.86-3.59,0-5.48-2.11-3.38-7.59,3.59-8.64,11.59-17.91,20.45-21.28a10.49,10.49,0,0,1,5.05-1.27C915.82,163.28,920,166.87,914.77,176.56Z" transform="translate(-250.97 -50.89)"/><path class="cls-8" d="M1117.92,220.39c-.84-15.38-8.64-28.24-22.76-34.77a2.9,2.9,0,0,1,.84-.63c29.93-17.49,21.71-48.26,0-64.91-15.8-12-41.09-15-60.9-15-19,0-37.09,4.21-39.83,19-6.11,33.5-14.33,95.25,3.79,126.23,7.38,12.85,27,19.18,48.26,19.18,17.07,0,35-4.22,48.68-12.44S1118.76,236.62,1117.92,220.39Zm-81.14-74c3.8-3.58,8.43-6.11,13.7-6.11a15.42,15.42,0,0,1,6.75,1.48c10.11,6.32-.43,19.6-9.91,21.49a7.91,7.91,0,0,1-2.11.21,12.87,12.87,0,0,1-3.16-.42C1036.15,160.54,1028.78,154,1036.78,146.42Zm10.54,87.46h-.42a7,7,0,0,1-3.16-.63c-5.9-2.32-13.49-8.85-5.27-16.65,3.79-3.58,8.64-6.32,13.91-6.32a15.48,15.48,0,0,1,6.74,1.47C1070.08,218.71,1057.23,233.46,1047.32,233.88Zm34.77-100.1c-3.16-9.69.42-13.07,4.85-13.07a11.6,11.6,0,0,1,6.74,2.53,12.74,12.74,0,0,1,2.32,1.69,42.43,42.43,0,0,1,14.75,24.44c1.06,5.27-.63,7.59-3.58,7.59C1098.11,157,1084.41,141.79,1082.09,133.78Z" transform="translate(-250.97 -50.89)"/><path class="cls-9" d="M1107.17,157c-9.06,0-22.76-15.17-25.08-23.18-3.16-9.69.42-13.07,4.85-13.07a11.6,11.6,0,0,1,6.74,2.53,12.74,12.74,0,0,1,2.32,1.69,42.43,42.43,0,0,1,14.75,24.44C1111.81,154.64,1110.12,157,1107.17,157Z" transform="translate(-250.97 -50.89)"/><path class="cls-9" d="M1047.32,163.28a7.91,7.91,0,0,1-2.11.21,12.87,12.87,0,0,1-3.16-.42c-5.9-2.53-13.27-9.06-5.27-16.65,3.8-3.58,8.43-6.11,13.7-6.11a15.42,15.42,0,0,1,6.75,1.48C1067.34,148.11,1056.8,161.39,1047.32,163.28Z" transform="translate(-250.97 -50.89)"/><path class="cls-9" d="M1047.32,233.88h-.42a7,7,0,0,1-3.16-.63c-5.9-2.32-13.49-8.85-5.27-16.65,3.79-3.58,8.64-6.32,13.91-6.32a15.48,15.48,0,0,1,6.74,1.47C1070.08,218.71,1057.23,233.46,1047.32,233.88Z" transform="translate(-250.97 -50.89)"/><path class="cls-8" d="M1246.89,245.47c-1.26-7.58-8.43-23.39-15-28.24,4.22-25.71-4.85-46.78-21.7-55.84a41.83,41.83,0,0,0-19.39-4.64c-30.77,0-58,27.19-64.49,56.27a57.49,57.49,0,0,0,2.32,34.77c5.9,14.12,18.33,21.71,33.51,21.71a52.83,52.83,0,0,0,37.72-16.44,24.5,24.5,0,0,0,22.34,14.33c10.11,0,22.55-8.22,24.65-18.55A9.07,9.07,0,0,0,1246.89,245.47Zm-70.8-21.91H1175c-6.11,0-13.7-2.74-10.32-12,3-7.58,7.58-10.53,11-11.8a12.66,12.66,0,0,1,4.64-.63C1193.79,200.79,1186,222.92,1176.09,223.56Zm46.15-29.09a14.5,14.5,0,0,1-4.64-.84c-10.33-3.58-20.86-10.75-24-21.92-1.27-4.63.21-10.11,6.32-10.11a22.73,22.73,0,0,1,10.33,3.16C1223.5,172.56,1233.62,194.47,1222.24,194.47Z" transform="translate(-250.97 -50.89)"/><path class="cls-9" d="M1222.24,194.47a14.5,14.5,0,0,1-4.64-.84c-10.33-3.58-20.86-10.75-24-21.92-1.27-4.63.21-10.11,6.32-10.11a22.73,22.73,0,0,1,10.33,3.16C1223.5,172.56,1233.62,194.47,1222.24,194.47Z" transform="translate(-250.97 -50.89)"/><path class="cls-9" d="M1176.09,223.56H1175c-6.11,0-13.7-2.74-10.32-12,3-7.58,7.58-10.53,11-11.8a12.66,12.66,0,0,1,4.64-.63C1193.79,200.79,1186,222.92,1176.09,223.56Z" transform="translate(-250.97 -50.89)"/><path class="cls-8" d="M1328.87,221.87c12.65-13.28,41.94-37.93,19.18-54.79a19.91,19.91,0,0,0-12-3.8c-15.17,0-27.61,14.76-35,26.56,0-11.38.21-51.85-2.11-65.12-2.11-11.8-11.17-17.49-20.44-17.49A23.25,23.25,0,0,0,1260,116.5c-4.42,5.69-4.21,11.59-4.85,19-2.1,31-2.31,80.29,1.69,111.27,2.32,17.28,9.69,22.76,26.55,22.76a28.42,28.42,0,0,0,7.38-.85c10.33-2.1,12.22-10.32,11.38-20.23,6.53,7.59,18.76,20.23,29.71,20.23s19.39-10.74,19.81-21.28a12.81,12.81,0,0,0-.84-5.06C1348.47,236.2,1334.35,225.66,1328.87,221.87ZM1313.07,182c3.37-7.59,13.48-15.81,22.34-15.81,5.47,0,8.22,3.8,2.95,12.86-3.8,6.32-13.28,12.22-20.66,12.22C1312.86,191.31,1310.12,188.57,1313.07,182Z" transform="translate(-250.97 -50.89)"/><path class="cls-9" d="M1338.36,179.09c-3.8,6.32-13.28,12.22-20.66,12.22-4.84,0-7.58-2.74-4.63-9.27,3.37-7.59,13.48-15.81,22.34-15.81C1340.88,166.23,1343.63,170,1338.36,179.09Z" transform="translate(-250.97 -50.89)"/><path class="cls-8" d="M1421.81,156.12c-17.91,0-35.4,1.89-47,17.28-8,10.32-12.65,24.87-13.49,39.41-.84,14.75,2.32,29.29,10.12,39.83,8.43,11.59,22.12,16.86,36.24,16.86,17.71,0,37.73-4.85,43-24.24,1.69-6.95.85-12-1.89-15.8-3.16-4.22-8.64-6.33-13.91-6.33s-11.59,1.9-15.39,5.69a10.45,10.45,0,0,1-7,3c-4.43,0-7.8-3.37-7.59-8.21,0-4.22,1.9-7.17,5.69-7.17a15.43,15.43,0,0,1,2.53.42,75,75,0,0,0,21.5,3.37c11,0,20-1.89,26.13-12C1478.92,177.4,1451.32,157.59,1421.81,156.12Zm-20.44,20.44c-3.79,7.16-17.28,16.86-25.92,16.86-3.58,0-5.48-2.11-3.37-7.59,3.58-8.64,11.59-17.91,20.44-21.28a10.53,10.53,0,0,1,5.06-1.27C1402.42,163.28,1406.64,166.87,1401.37,176.56Zm21.5,23.6c-4,0-9.49-1.47-11.38-5.27-2.11-4.84-3.16-13.27,6.32-13.48,6.11,0,13.49,2.31,15.59,8.85C1435.3,197,1429.19,200.16,1422.87,200.16Z" transform="translate(-250.97 -50.89)"/><path class="cls-9" d="M1422.87,200.16c-4,0-9.49-1.47-11.38-5.27-2.11-4.84-3.16-13.27,6.32-13.48,6.11,0,13.49,2.31,15.59,8.85C1435.3,197,1429.19,200.16,1422.87,200.16Z" transform="translate(-250.97 -50.89)"/><path class="cls-9" d="M1401.37,176.56c-3.79,7.16-17.28,16.86-25.92,16.86-3.58,0-5.48-2.11-3.37-7.59,3.58-8.64,11.59-17.91,20.44-21.28a10.53,10.53,0,0,1,5.06-1.27C1402.42,163.28,1406.64,166.87,1401.37,176.56Z" transform="translate(-250.97 -50.89)"/></svg>