<svg id="Layer_1" data-name="Layer 1" xmlns="http://www.w3.org/2000/svg" viewBox="0 0 143.87 143.84"><defs><style>.cls-1{fill:#f7dec6;}.cls-2{fill:#c66822;}</style></defs><path class="cls-1" d="M1354.21,546.88a71.92,71.92,0,1,1-71.91,72A71.86,71.86,0,0,1,1354.21,546.88Zm-42.36,103.58c.25.17.49.36.75.52a51.59,51.59,0,0,0,38.82,5.83c25.27-5.8,38.77-28.88,39-49.13,0-2.43.5-4.17,2.61-5.48a14.48,14.48,0,0,0,2.59-2.43,28.64,28.64,0,0,0,1.92-2.19c.57-.71,1.07-1.47,1.65-2.27l-9.26,2.51c5-5.26,6.61-7.45,6.73-9.75-1.51.7-3,1.47-4.54,2.08s-3.28,1-4.9,1.6a2.42,2.42,0,0,1-2.74-.63,18,18,0,0,0-20.46-2.7,18.24,18.24,0,0,0-9.76,17.92c.07.72.18,1.44.29,2.32-15.17-1.07-27.43-7.41-37.18-18.74a15.84,15.84,0,0,0-2.56,9.27,18.45,18.45,0,0,0,7.64,14.51l-.26.42-7.57-2.12c.64,9.16,5.41,14.93,14,18H1321c3.07,7.78,8.56,11.82,16.86,12.67A38.57,38.57,0,0,1,1311.85,650.46Z" transform="translate(-1282.3 -546.88)"/><path class="cls-2" d="M1311.85,650.46a38.57,38.57,0,0,0,26-7.79c-8.3-.85-13.79-4.89-16.86-12.67h7.63c-8.6-3.07-13.37-8.84-14-18l7.57,2.12.26-.42a18.45,18.45,0,0,1-7.64-14.51,15.84,15.84,0,0,1,2.56-9.27c9.75,11.33,22,17.67,37.18,18.74-.11-.88-.22-1.6-.29-2.32a18.24,18.24,0,0,1,9.76-17.92,18,18,0,0,1,20.46,2.7,2.42,2.42,0,0,0,2.74.63c1.62-.56,3.3-1,4.9-1.6s3-1.38,4.54-2.08c-.12,2.3-1.7,4.49-6.73,9.75l9.26-2.51c-.58.8-1.08,1.56-1.65,2.27a28.64,28.64,0,0,1-1.92,2.19,14.48,14.48,0,0,1-2.59,2.43c-2.11,1.31-2.58,3-2.61,5.48-.25,20.25-13.75,43.33-39,49.13A51.59,51.59,0,0,1,1312.6,651C1312.34,650.82,1312.1,650.63,1311.85,650.46Z" transform="translate(-1282.3 -546.88)"/></svg>